<?xml version="1.0" encoding="UTF-8"?>
<svg id="Capa_2" data-name="Capa 2" xmlns="http://www.w3.org/2000/svg" viewBox="0 0 366.34 403.86">
  <defs>
    <style>
      .cls-1 {
        fill: #fff;
      }

      .cls-2 {
        opacity: .6;
      }

      .cls-3 {
        fill: #455a64;
      }

      .cls-4 {
        fill: #ffbf9d;
      }

      .cls-5 {
        fill: #e0e0e0;
      }

      .cls-6 {
        fill: #ff9a6c;
      }

      .cls-7 {
        fill: #85ff2e;
      }

      .cls-8 {
        fill: #d0fdc3;
      }

      .cls-9 {
        fill: #00fe00;
      }

      .cls-10 {
        fill: #263238;
      }
    </style>
  </defs>
  <g id="Tab">
    <g>
      <g>
        <g>
          <g>
            <path class="cls-1" d="m140.98.26h216.08c4.99,0,9.05,4.06,9.05,9.05v298.67c0,4.62-3.75,8.38-8.38,8.38h-216.71c-4.18,0-7.58-3.4-7.58-7.58V7.8c0-4.16,3.38-7.54,7.54-7.54Z"/>
            <path class="cls-5" d="m140.98.26h216.08c4.99,0,9.05,4.06,9.05,9.05v19.76h-232.67V7.8c0-4.16,3.38-7.54,7.54-7.54Z"/>
            <ellipse class="cls-1" cx="149.15" cy="14.14" rx="3.82" ry="3.63"/>
            <ellipse class="cls-1" cx="162.04" cy="14.14" rx="3.82" ry="3.63"/>
            <path class="cls-1" d="m178.75,14.14c0,2-1.71,3.63-3.82,3.63s-3.82-1.63-3.82-3.63,1.71-3.63,3.82-3.63,3.82,1.63,3.82,3.63Z"/>
          </g>
          <g>
            <g>
              <rect class="cls-7" x="168.24" y="80.55" width="9.37" height="68.52"/>
              <rect class="cls-8" x="186.32" y="103.82" width="9.37" height="45.25"/>
              <rect class="cls-7" x="204.41" y="89.06" width="9.37" height="60.35"/>
              <rect class="cls-8" x="222.49" y="83.19" width="9.37" height="65.87"/>
              <rect class="cls-7" x="240.57" y="105.21" width="9.37" height="43.85"/>
              <rect class="cls-8" x="258.65" y="113.81" width="9.37" height="35.25"/>
              <rect class="cls-7" x="276.74" y="87.58" width="9.37" height="61.48"/>
              <rect class="cls-8" x="294.82" y="98.66" width="9.37" height="50.4"/>
              <rect class="cls-7" x="312.9" y="89.81" width="9.37" height="59.26"/>
              <rect class="cls-8" x="330.98" y="108.69" width="9.37" height="40.37"/>
            </g>
            <path class="cls-10" d="m158.57,83.19s.01.1.02.31c0,.22.01.52.02.91,0,.82.02,2.01.03,3.55.01,3.13.04,7.69.06,13.47.02,11.62.06,28.17.09,47.97l-.23-.23c18.17,0,39.47-.02,62.14-.03,35.45.03,67.53.06,90.77.08,11.6.03,21,.06,27.51.08,3.23.02,5.75.04,7.48.05.84.01,1.49.02,1.94.03.44,0,.66.03.66.03,0,0-.22.02-.66.03-.46,0-1.1.01-1.94.03-1.73.01-4.24.03-7.48.05-6.51.02-15.91.05-27.51.08-23.24.02-55.33.05-90.77.08-22.67-.01-43.96-.02-62.14-.03h-.23s0-.23,0-.23c.04-19.8.07-36.35.09-47.97.03-5.79.05-10.35.06-13.47.01-1.54.03-2.73.03-3.55,0-.39.01-.69.02-.91,0-.2.02-.31.02-.31Z"/>
          </g>
          <rect class="cls-5" x="159.06" y="57.34" width="55.6" height="5.76" rx="2.56" ry="2.56"/>
          <rect class="cls-5" x="153.85" y="173.27" width="182.89" height="5.76" rx="2.56" ry="2.56"/>
          <rect class="cls-5" x="153.85" y="205.3" width="182.89" height="5.76" rx="2.56" ry="2.56"/>
          <rect class="cls-5" x="153.85" y="189.21" width="99.28" height="5.76" rx="2.56" ry="2.56"/>
          <rect class="cls-5" x="264.01" y="189.21" width="71.54" height="5.76" rx="2.56" ry="2.56"/>
          <rect class="cls-5" x="155.04" y="221.38" width="71.54" height="5.76" rx="2.56" ry="2.56"/>
        </g>
        <path class="cls-10" d="m357.73,316.35c-.01-.06.98.1,2.74-.49.87-.3,1.91-.83,2.91-1.76,1-.91,1.95-2.27,2.4-4.01.24-.87.3-1.82.27-2.83,0-1.01,0-2.07,0-3.18,0-2.23,0-4.66-.01-7.3,0-5.28-.01-11.37-.02-18.22-.02-27.42-.05-67.09-.08-116.11,0-24.51-.02-51.36-.03-80.18,0-14.41,0-29.31-.01-44.67,0-7.68,0-15.46,0-23.36v-2.97c0-.99.03-1.99-.06-2.95-.22-1.92-1.08-3.77-2.45-5.17-1.37-1.38-3.19-2.35-5.14-2.58-.96-.12-1.98-.08-2.99-.09h-3.03c-64.81,0-136.07.01-210.86.02-2.29-.1-4.54.9-5.98,2.64-.71.87-1.22,1.91-1.47,3-.28,1.08-.17,2.25-.19,3.41,0,4.65,0,9.28,0,13.9,0,9.24,0,18.41,0,27.52,0,18.22,0,36.16,0,53.8,0,35.27-.01,69.3-.02,101.71,0,32.41-.02,63.21-.02,92.03,0,3.6-.03,7.19.02,10.7.1,1.72.82,3.39,2.01,4.61,1.18,1.23,2.78,2.05,4.46,2.24.83.09,1.71.05,2.57.06.87,0,1.73,0,2.59,0,1.72,0,3.44,0,5.14,0,3.41,0,6.79,0,10.13,0,13.38,0,26.22.01,38.47.02,49.02.03,88.68.06,116.1.08,13.7.02,24.34.04,31.57.05,3.6.01,6.35.02,8.21.03,1.85,0,2.8.03,2.8.03,0,0-.95.02-2.8.03-1.85,0-4.6.01-8.21.03-7.22.01-17.86.03-31.57.05-27.42.02-67.08.05-116.1.08-12.25,0-25.09.01-38.47.02-3.34,0-6.72,0-10.13,0-1.71,0-3.42,0-5.14,0-.86,0-1.72,0-2.59,0-.87,0-1.72.03-2.62-.06-1.78-.2-3.47-1.06-4.72-2.36-1.26-1.29-2.02-3.06-2.13-4.88-.05-3.57-.02-7.12-.03-10.73,0-28.82-.02-59.62-.02-92.03,0-32.41,0-66.43-.02-101.71,0-17.64,0-35.58,0-53.8,0-9.11,0-18.28,0-27.52,0-4.62,0-9.25,0-13.9v-1.74c.01-.6.06-1.2.2-1.79.27-1.17.82-2.28,1.58-3.21.77-.92,1.76-1.67,2.86-2.16,1.1-.51,2.34-.69,3.52-.67,74.79,0,146.04.01,210.86.02h3.03c1.01.01,2.02-.04,3.05.09,2.06.25,3.98,1.26,5.42,2.72,1.44,1.47,2.35,3.42,2.58,5.45.09,1.03.05,2.01.06,3v2.97c0,7.89,0,15.68,0,23.36,0,15.35,0,30.26-.01,44.67-.01,28.82-.02,55.67-.03,80.18-.03,49.02-.06,88.69-.08,116.11,0,6.85-.02,12.94-.02,18.22,0,2.64,0,5.07-.01,7.3,0,1.11,0,2.17,0,3.18.02,1-.04,1.98-.29,2.85-.46,1.76-1.43,3.12-2.44,4.04-1.02.93-2.07,1.46-2.95,1.76-.88.3-1.58.39-2.05.42-.47.02-.71.02-.71.02Z"/>
      </g>
      <g>
        <path class="cls-5" d="m208.72,272.23c.21,13.4-10.47,24.49-23.81,24.7-13.34.22-24.37-10.52-24.59-23.92-.21-13.4,10.47-24.49,23.81-24.7,13.34-.22,24.37,10.52,24.59,23.92Zm-35.77.58c.1,6.41,5.38,11.54,11.76,11.44,6.38-.1,11.49-5.4,11.38-11.81-.1-6.41-5.38-11.54-11.76-11.44-6.38.1-11.49,5.4-11.38,11.81Z"/>
        <path class="cls-3" d="m208.72,272.23c.21,13.4-10.47,24.49-23.81,24.7l-.2-12.69c6.38-.1,11.49-5.4,11.38-11.81-.1-6.41-5.38-11.54-11.76-11.44l-.2-12.69c13.34-.22,24.37,10.51,24.59,23.92Z"/>
        <path class="cls-7" d="m187.08,298.88c-15.61.25-28.06-11.86-28.31-27.55l14.77-.24c.12,7.5,5.83,12.22,13.29,12.1l.25,15.68Z"/>
      </g>
      <g>
        <path class="cls-3" d="m225.58,274.96c-.21-13.4,10.47-24.49,23.81-24.7,13.34-.22,24.37,10.52,24.59,23.92.21,13.4-10.47,24.49-23.81,24.7-13.34.22-24.37-10.52-24.59-23.92Zm35.77-.58c-.1-6.41-5.38-11.54-11.76-11.44-6.38.1-11.49,5.4-11.38,11.81.1,6.41,5.38,11.54,11.76,11.44,6.38-.1,11.49-5.4,11.38-11.81Z"/>
        <path class="cls-7" d="m225.58,274.96c-.21-13.4,10.47-24.49,23.81-24.7l.2,12.69c-6.38.1-11.49,5.4-11.38,11.81.1,6.41,5.38,11.54,11.76,11.44l.2,12.69c-13.34.22-24.37-10.51-24.59-23.92Z"/>
        <path class="cls-5" d="m247.21,248.31c15.61-.25,28.06,11.86,28.31,27.55l-14.77.24c-.12-7.5-5.83-12.22-13.29-12.1l-.25-15.68Z"/>
      </g>
      <g>
        <path class="cls-3" d="m317.67,248.62c13.4-.21,24.49,10.47,24.7,23.81.22,13.34-10.52,24.37-23.92,24.59-13.4.21-24.49-10.47-24.7-23.81-.22-13.34,10.52-24.37,23.92-24.59Zm.58,35.77c6.41-.1,11.54-5.38,11.44-11.76-.1-6.38-5.4-11.49-11.81-11.38-6.41.1-11.54,5.38-11.44,11.76.1,6.38,5.4,11.49,11.81,11.38Z"/>
        <path class="cls-7" d="m317.67,248.62c13.4-.21,24.49,10.47,24.7,23.81l-12.69.2c-.1-6.38-5.4-11.49-11.81-11.38-6.41.1-11.54,5.38-11.44,11.76l-12.69.2c-.22-13.34,10.51-24.37,23.92-24.59Z"/>
        <path class="cls-5" d="m344.32,270.26c.25,15.61-11.86,28.06-27.55,28.31l-.24-14.77c7.5-.12,12.22-5.83,12.1-13.29l15.68-.25Z"/>
      </g>
    </g>
  </g>
  <g id="Speech_Bubble" data-name="Speech Bubble">
    <g>
      <g>
        <path class="cls-1" d="m50.67,88.6l-7.47.72c-2.98,3.79-7.13,6.74-12.17,8.23-11.37,3.36-23.73-2.25-28.68-13.03-6.22-13.54,1.08-29.32,15.42-33.36,11.5-3.24,23.85,2.65,28.6,13.62,2.43,5.6,2.56,11.56.87,16.89h0s3.42,6.93,3.42,6.93Z"/>
        <path class="cls-10" d="m50.79,88.35s-.09-.16-.25-.46c-.17-.32-.39-.76-.68-1.33-.6-1.18-1.47-2.89-2.59-5.1h.19s0,.02,0,.02c-.03.05-.1.07-.15.04-.04-.03-.06-.08-.05-.13.9-2.94,1.55-7.04.63-11.74-.44-2.34-1.33-4.79-2.67-7.17-1.34-2.38-3.17-4.69-5.52-6.64-2.34-1.95-5.19-3.54-8.37-4.5-3.18-.97-6.69-1.3-10.22-.82-7.04.93-14.1,5.41-17.75,12.38l-.67,1.31-.55,1.36c-.41.89-.6,1.85-.9,2.76-.43,1.88-.73,3.77-.71,5.66-.03,3.77.85,7.45,2.4,10.67,1.58,3.21,3.83,5.95,6.43,8.05,2.6,2.1,5.52,3.57,8.46,4.41,5.92,1.7,11.72.9,16.07-.99,4.41-1.89,7.43-4.72,9.34-7.12.03-.01.05-.03.08-.04,2.39-.2,4.24-.36,5.53-.47.62-.05,1.1-.09,1.45-.12.33-.03.51-.03.51-.03,0,0-.15.03-.46.06-.34.04-.81.09-1.41.16-1.3.14-3.17.35-5.59.61l.08-.04c-1.89,2.44-4.92,5.34-9.37,7.29-4.4,1.96-10.3,2.8-16.33,1.1-3-.85-5.99-2.33-8.64-4.47-2.65-2.13-4.96-4.92-6.58-8.2C.88,81.58-.02,77.83,0,73.98c-.03-1.93.28-3.87.72-5.79.31-.93.5-1.92.92-2.82l.56-1.39.69-1.33c3.72-7.12,10.96-11.7,18.14-12.63,3.6-.49,7.19-.14,10.43.86,3.24.99,6.14,2.62,8.52,4.62,2.38,2,4.24,4.36,5.59,6.79,1.35,2.43,2.24,4.92,2.67,7.3.9,4.78.19,8.92-.76,11.87l-.2-.09h0c.03-.06.1-.08.15-.05.02.01.03.03.04.05,1.09,2.27,1.92,4.02,2.5,5.23.27.57.47,1,.62,1.32.14.29.2.44.19.44Z"/>
      </g>
      <g>
        <rect class="cls-5" x="32.85" y="73.53" width="3.69" height="10.4"/>
        <polygon class="cls-5" points="31.48 74.4 37.78 74.4 34.56 71.07 31.48 74.4"/>
      </g>
      <g>
        <rect class="cls-5" x="22.47" y="59.25" width="4.94" height="28.83"/>
        <polygon class="cls-5" points="20.64 60.41 29.08 60.41 24.77 55.97 20.64 60.41"/>
      </g>
      <path class="cls-9" d="m25.97,83.52l-.04,2.71-2.42-.03.04-2.64c-2.4-.18-4.69-.96-6-2.02l1.37-2.94c1.2.91,2.93,1.59,4.68,1.78l.05-4.04c-2.68-.69-5.67-1.62-5.62-5.09.03-2.57,1.93-4.75,5.76-5.13l.04-2.69,2.42.03-.04,2.64c1.81.17,3.57.68,4.9,1.54l-1.25,2.96c-1.23-.72-2.48-1.15-3.69-1.31l-.05,4.12c2.68.66,5.62,1.6,5.58,5.01-.03,2.52-1.9,4.67-5.71,5.08Zm-2.28-10.74l.05-3.44c-1.29.27-1.8.97-1.82,1.77-.01.85.71,1.32,1.77,1.67Zm4.09,5.89c.01-.85-.68-1.32-1.72-1.69l-.04,3.34c1.21-.25,1.76-.87,1.77-1.65Z"/>
      <g>
        <rect class="cls-5" x="11.85" y="67.1" width="4.26" height="12"/>
        <polygon class="cls-5" points="10.27 68.11 17.55 68.11 13.83 64.26 10.27 68.11"/>
      </g>
    </g>
  </g>
  <g id="Character">
    <g>
      <g>
        <g>
          <path class="cls-3" d="m109.07,361.04l-.67,17.88s17.95,6.69,18.15,10.01l-34.72-.06-.09-27.91,17.34.08Z"/>
          <path class="cls-5" d="m97.66,377.4c-.67.18-1.14.94-.98,1.62.15.68.92,1.16,1.59.99.68-.17,1.26-1.06,1.03-1.72-.23-.66-1.16-1.17-1.77-.84"/>
          <path class="cls-10" d="m91.82,388.87l.1-2.81,33.26,1.11s1.54.68,1.37,1.76l-34.72-.06Z"/>
          <path class="cls-1" d="m108.96,378.75c0,.17-.85.24-1.69.79-.85.52-1.28,1.26-1.44,1.19-.16-.03.1-1.05,1.12-1.69,1.02-.65,2.04-.45,2-.29Z"/>
          <path class="cls-1" d="m112.59,380.26c.04.16-.7.45-1.27,1.17-.6.7-.74,1.47-.91,1.47-.16.03-.27-.97.46-1.84.73-.88,1.72-.95,1.73-.79Z"/>
          <path class="cls-1" d="m114.66,384.63c-.15.04-.39-.81.05-1.74.43-.93,1.23-1.3,1.3-1.15.1.14-.42.64-.77,1.4-.37.76-.41,1.47-.58,1.49Z"/>
          <path class="cls-1" d="m108.66,374.66c-.07.15-.85-.08-1.81-.02-.96.04-1.71.36-1.79.22-.1-.12.63-.75,1.76-.81,1.13-.07,1.92.47,1.84.61Z"/>
        </g>
        <g>
          <path class="cls-3" d="m67.41,362.15l-.96,21.63,4.17,17.33c.3,1.25-.52,2.49-1.79,2.71h0c-.71.12-1.43-.11-1.94-.61-3.23-3.24-14.75-15.38-14.8-16.53-.08-1.84-.61-23.15-.61-23.15l15.93-1.37Z"/>
          <path class="cls-10" d="m68.83,403.82l-16.82-18.87-.02.92c.06.94.24,1.57.74,2.18,1.34,1.65,5.14,6.11,14.09,15.16.52.53,1.27.76,2,.62h0Z"/>
          <g class="cls-2">
            <path class="cls-1" d="m56.6,378.06c.53.39.69,1.21.33,1.76-.36.55-1.2.72-1.74.34-.54-.38-.76-1.36-.34-1.87.42-.51,1.42-.65,1.85-.15"/>
          </g>
          <path class="cls-1" d="m64.09,394.25c.12.06.63-1.06,1.93-1.64,1.28-.62,2.47-.29,2.5-.42.02-.05-.25-.23-.76-.31-.5-.08-1.23-.03-1.95.3-.71.33-1.23.86-1.48,1.3-.26.44-.3.76-.25.78Z"/>
          <path class="cls-1" d="m65.57,397.18c.1.1.81-.59,1.94-.89,1.12-.32,2.08-.09,2.12-.23.06-.11-.97-.59-2.25-.23-1.28.35-1.92,1.29-1.81,1.35Z"/>
          <path class="cls-1" d="m61.3,390.47c.1.1,1.19-.96,2.9-1.57,1.7-.64,3.22-.53,3.23-.68.04-.11-1.56-.45-3.39.23-1.83.66-2.84,1.96-2.73,2.02Z"/>
          <path class="cls-1" d="m61.04,383.87c.05.13,1.26-.34,2.82-.37,1.56-.04,2.78.38,2.83.24.06-.1-1.17-.76-2.84-.72-1.67.03-2.88.74-2.81.84Z"/>
          <path class="cls-1" d="m61.16,377.51c.06.13,1.28-.57,2.92-.46,1.64.07,2.78.9,2.85.78.04-.04-.19-.32-.69-.62-.49-.3-1.26-.59-2.14-.64-.88-.05-1.68.15-2.2.39-.52.24-.78.49-.75.54Z"/>
          <path class="cls-1" d="m64.08,375.85s.08-.29.05-.82c-.04-.53-.17-1.3-.6-2.16-.23-.41-.46-.93-1.06-1.23-.3-.15-.75-.1-1.01.18-.26.27-.35.63-.36.97,0,1.37,1.14,2.73,2.68,2.96,1.55.2,2.97-.65,3.61-1.82.14-.3.24-.68.08-1.05-.16-.37-.59-.53-.91-.48-.64.08-1.06.44-1.44.71-.76.58-1.23,1.2-1.51,1.65-.28.45-.37.73-.35.74.07.06.57-1.05,2.06-2.12.38-.24.81-.56,1.27-.59.23-.02.42.08.49.26.08.18.03.45-.09.69-.54.96-1.84,1.74-3.15,1.55-1.3-.18-2.31-1.37-2.32-2.48,0-.27.08-.53.23-.69.14-.15.36-.19.56-.11.42.18.69.64.91,1.02.88,1.61.76,2.84.85,2.82Z"/>
        </g>
        <g>
          <path class="cls-10" d="m119.75,211.44s3.06,10.07,2.63,22.52c-.17,4.82-10.73,138.32-10.73,138.32l-21.87.93.85-125.09-1.77.46s-9.68,53.75-10.29,62.41c-.55,7.79-8.23,64.5-8.23,64.5l-19.92-.55,3.16-73.1,4.4-71.76,1.91-20.91,59.86,2.26Z"/>
          <path class="cls-3" d="m86.64,235.53s.32.2.93.48c.62.26,1.53.66,2.75.83.61.08,1.3.09,2.02-.07.71-.16,1.47-.5,2.06-1.1.6-.61.96-1.43,1.18-2.29.22-.86.33-1.75.47-2.66.54-3.63.88-6.94,1.05-9.34.09-1.2.14-2.17.16-2.84.02-.67.01-1.05-.02-1.05-.03,0-.09.37-.16,1.03-.08.77-.18,1.71-.31,2.83-.26,2.39-.64,5.68-1.18,9.3-.28,1.79-.44,3.61-1.51,4.72-1.06,1.09-2.6,1.26-3.73,1.14-1.17-.12-2.09-.47-2.72-.68-.63-.22-.99-.34-1-.31Z"/>
          <path class="cls-3" d="m92.51,218.32s-.15-.11-.46-.11c-.31,0-.76.1-1.21.45-.42.34-.86.94-.85,1.73,0,.8.65,1.56,1.48,1.82.82.28,1.8.06,2.27-.59.48-.63.48-1.37.34-1.9-.15-.54-.46-.9-.71-1.07-.25-.18-.43-.2-.43-.18-.06.06.63.34.83,1.33.09.46.04,1.09-.35,1.55-.37.48-1.12.64-1.79.42-.68-.22-1.18-.8-1.2-1.4-.04-.6.29-1.14.64-1.46.74-.68,1.46-.5,1.45-.58Z"/>
          <path class="cls-3" d="m58.23,228.8s.27.06.75.08c.48.03,1.19.01,2.05-.06,1.73-.15,4.11-.67,6.52-1.81,2.41-1.14,4.33-2.65,5.54-3.89.61-.62,1.07-1.15,1.35-1.54.29-.39.44-.61.41-.63-.06-.05-.73.78-1.99,1.94-1.25,1.16-3.16,2.59-5.51,3.71-2.36,1.11-4.67,1.67-6.36,1.9-1.69.24-2.76.22-2.76.3Z"/>
        </g>
      </g>
      <g>
        <polygon class="cls-4" points="141.49 142.83 153.62 118.7 162.83 123.38 154.94 150.36 141.49 142.83"/>
        <g>
          <path class="cls-4" d="m165.87,122.25c1.36-2.26,2.99-4.72,2.99-4.72l1.32-2.26c.12.13.21.28.3.43.17.28.35.58.64.75.55.31,1.25,0,1.72-.42.98-.89,1.44-2.32,1.15-3.6-.28-1.23-1.24-2.28-2.44-2.68-.16-.29-.38-.57-.69-.83-1.91-1.55-5.33-.48-5.33-.48l.35-.86s2.03-2.02,6.54-.45c.67.23,1.42.24,2.08-.03.4-.17.77-.44.91-.89.35-1.1-.34-1.64-3.14-2.65-2.8-1.02-5.84-1.07-7.51.03-1.67,1.1-2.26,1.64-2.26,1.64,0,0,2.73-7.91,2.88-8.42.44-1.47.15-2.89-.8-3.27-.61-.25-1.56-.11-2.13,1.59-.49,1.47-7.43,15.85-7.43,15.85l-2.7,6.54-1.35,5.76,8.39,3.81,2.11-1.32c1.83-.62,3.38-1.86,4.37-3.51Z"/>
          <g>
            <path class="cls-4" d="m153.82,117.39c.76.5,1.81.17,2.51-.42.7-.59,1.17-1.39,1.83-2.03,1.95-1.9,5.17-2.06,7.03-4.06.26-.28.49-.7.28-1.01-.2-.29-.63-.25-.97-.19-2.95.56-5.91,1.12-8.86,1.69"/>
            <path class="cls-6" d="m155.63,111.37s.33-.13.94-.28c.61-.15,1.5-.34,2.6-.58,1.15-.23,2.45-.5,3.87-.79.37-.07.74-.15,1.12-.22.36-.04.81-.26,1.35.05.26.17.35.54.28.8-.07.26-.2.47-.36.65-.31.33-.64.62-1.01.87-1.49,1-3.11,1.41-4.4,2.08-.65.32-1.23.69-1.69,1.13-.46.44-.83.93-1.21,1.36-.73.89-1.7,1.33-2.36,1.29-.68-.02-.95-.34-.93-.34.02-.05.32.19.92.14.6-.04,1.42-.45,2.09-1.33.35-.42.7-.94,1.19-1.43.49-.49,1.1-.9,1.78-1.25,1.34-.71,2.95-1.14,4.32-2.07.34-.23.65-.51.91-.78.25-.28.34-.61.17-.71-.18-.13-.58-.06-.96.02-.38.07-.76.14-1.12.2-1.43.25-2.74.48-3.89.68-1.11.19-2.01.33-2.63.42-.62.09-.97.12-.98.08Z"/>
          </g>
          <path class="cls-6" d="m165.4,108.44c.06.03.19-.7,1.03-1.36.42-.32,1.02-.54,1.72-.55.7-.02,1.46.15,2.25.39.79.24,1.56.48,2.31.54.74.06,1.42-.03,1.95-.29.53-.25.79-.72.84-1.03.06-.31,0-.49,0-.48-.03,0-.03.17-.12.45-.09.28-.33.65-.82.85-.47.2-1.12.27-1.82.19-.7-.07-1.44-.31-2.24-.55-.8-.24-1.6-.42-2.35-.38-.75.02-1.42.3-1.85.67-.44.37-.67.78-.78,1.07-.11.29-.12.47-.1.47Z"/>
          <path class="cls-6" d="m165.55,96.23s-.24.59-.55,1.57c-.35,1.08-.77,2.38-1.24,3.81-.49,1.42-.92,2.71-1.29,3.79-.34.97-.54,1.57-.5,1.59.04.02.32-.55.72-1.51.39-.95.89-2.28,1.39-3.77.49-1.49.89-2.85,1.15-3.85.26-1,.37-1.62.33-1.63Z"/>
          <path class="cls-6" d="m166.59,110.81s.19,0,.52-.03c.31-.02.85-.04,1.24.34.19.19.26.47.19.79-.06.32-.24.64-.42,1-.17.35-.36.81-.23,1.3.13.48.52.85,1,1.02.49.17,1.01.08,1.42-.13.41-.22.75-.53.96-.91.37-.74.54-1.44.65-2.04.1-.6.1-1.1.04-1.44-.07-.34-.18-.5-.19-.49-.03.01.04.18.06.51.02.33-.01.8-.14,1.38-.13.57-.33,1.26-.69,1.94-.35.61-1.21,1.15-2,.88-.38-.13-.7-.45-.8-.8-.1-.36.03-.74.19-1.09.16-.35.35-.7.41-1.08.08-.37-.03-.79-.3-1.01-.52-.45-1.11-.35-1.42-.3-.33.07-.51.14-.5.16Z"/>
          <path class="cls-6" d="m170.26,114.83s-.11.15-.11.46c0,.3.16.79.65,1.12.48.32,1.24.38,1.92.03.68-.35,1.21-1.03,1.48-1.83.27-.8.26-1.64.03-2.34-.22-.7-.63-1.24-1.03-1.6-.41-.36-.81-.56-1.09-.67-.28-.1-.45-.12-.46-.1-.03.06.65.21,1.39.94.36.36.72.87.9,1.52.19.64.19,1.41-.06,2.15-.25.73-.72,1.36-1.3,1.67-.57.32-1.24.29-1.65.04-.42-.25-.6-.66-.64-.93-.05-.28,0-.44-.02-.45Z"/>
          <path class="cls-6" d="m163.02,118.34s-.25-.18-.76-.24c-.5-.06-1.26,0-1.99.46l.24.16c.08-.34.14-.72.18-1.11.23-2.19-.45-3.89-.52-3.84-.1.02.41,1.7.19,3.81-.04.38-.09.75-.16,1.08l-.07.37.31-.21c.64-.42,1.33-.53,1.8-.53.48,0,.76.08.77.04Z"/>
          <path class="cls-6" d="m167.71,104.9c-.09.01.03.68.62,1.21.59.53,1.27.57,1.27.48.02-.09-.54-.26-1.05-.73-.52-.45-.76-.99-.85-.96Z"/>
        </g>
      </g>
      <g>
        <g>
          <g>
            <path class="cls-8" d="m163.24,129.57l-12.25-6.3-10.51,16.88-18.85-15.37c-5.55-4.22-11.05-5.27-11.05-5.27l-1.07,3.35,3.28,27.71s21.16,13.4,26.68,13.95c11.51,1.14,23.77-34.95,23.77-34.95Z"/>
            <path class="cls-8" d="m118.63,178.93l-2.37-39.01-5.68-20.4-17.82-2.11-21.22,1.29-17.92,10.02,2.95,31.31,4.32,32.8-2.6,25.98c3.67,3.41,15.39,7.74,33,6.68,17.6-1.06,29.31-9.18,29.31-9.18l-1.98-37.39Z"/>
          </g>
          <path class="cls-8" d="m41.72,232.92c0-.81-8.44-41.98-8.29-43.91,1.16-15.16,8.53-39.47,10.78-47.08,3.39-11.5,10.24-13.55,10.24-13.55,0,0,2.97,4.37,5.39,13.03,2.42,8.66-.02,17.9-.02,17.9l-6.9,27.97,4.33,44.42-15.52,1.22Z"/>
        </g>
        <path class="cls-10" d="m113.8,134.53s.22.54.52,1.56c.31,1.01.7,2.49,1.13,4.33.41,1.84.84,4.06,1.18,6.54.34,2.48.6,5.22.77,8.09.34,5.76.47,10.96.68,14.73.1,1.81.18,3.32.25,4.46.06,1.05.07,1.64.03,1.64-.04,0-.12-.58-.24-1.62-.13-1.05-.26-2.57-.41-4.45-.31-3.76-.5-8.98-.83-14.72-.18-2.87-.42-5.59-.73-8.06-.31-2.47-.7-4.68-1.07-6.52-.38-1.84-.71-3.33-.96-4.36-.24-1.03-.36-1.6-.33-1.61Z"/>
        <path class="cls-10" d="m141.75,152.99c-.06.03-.44-.66-.86-1.85-.42-1.19-.85-2.89-1.03-4.81-.17-1.92-.06-3.67.13-4.91.19-1.25.43-1.99.49-1.97.16.03-.47,3.07-.11,6.84.32,3.77,1.52,6.64,1.36,6.7Z"/>
        <path class="cls-10" d="m59.8,160.03c.14.03-1.23,6.04-3.07,13.41-1.83,7.37-3.43,13.32-3.57,13.28-.14-.03,1.23-6.04,3.07-13.41,1.83-7.37,3.43-13.32,3.57-13.28Z"/>
        <path class="cls-10" d="m59.56,145.94c-.15.07-1.22-2.42-3.2-5.06-1.96-2.66-4.02-4.41-3.91-4.53.07-.11,2.33,1.5,4.33,4.22,2.02,2.71,2.9,5.34,2.78,5.37Z"/>
      </g>
      <g>
        <g>
          <g>
            <path class="cls-3" d="m98.11,228.95c8.1-1.53,16.74-.64,24.77,3.1,9.89,4.6,17.39,12.78,21.13,23.03,3.74,10.25,3.26,21.34-1.34,31.23-9.5,20.42-33.84,29.29-54.26,19.79h0c-9.89-4.6-17.39-12.78-21.13-23.03-3.74-10.25-3.26-21.34,1.34-31.23,5.77-12.39,16.99-20.53,29.49-22.89Zm14.56,77.56c11.66-2.21,22.14-9.8,27.52-21.36,4.29-9.23,4.74-19.58,1.25-29.14-3.49-9.56-10.49-17.19-19.72-21.49-9.23-4.3-19.58-4.74-29.14-1.25-9.56,3.49-17.19,10.49-21.49,19.72-4.29,9.23-4.74,19.58-1.25,29.14,3.49,9.56,10.49,17.19,19.72,21.49,7.49,3.49,15.55,4.32,23.11,2.89Z"/>
            <path class="cls-5" d="m105.58,311.9c-6.15,0-12.27-1.34-18.01-4.01-10.37-4.83-18.23-13.4-22.15-24.14-3.92-10.74-3.42-22.37,1.41-32.74,5.8-12.46,17.36-21.43,30.91-24,8.83-1.67,17.81-.55,25.97,3.25,10.37,4.83,18.23,13.4,22.15,24.14,3.92,10.74,3.42,22.37-1.41,32.74-4.82,10.35-13.39,18.21-24.15,22.14-4.8,1.75-9.77,2.62-14.73,2.62Zm.08-78.98c-4.18,0-8.36.73-12.4,2.21-9.07,3.31-16.3,9.95-20.38,18.7-4.07,8.75-4.49,18.56-1.19,27.63,3.31,9.07,9.95,16.3,18.7,20.38,6.88,3.2,14.46,4.15,21.91,2.74h0c11.45-2.16,21.2-9.74,26.1-20.25,4.07-8.75,4.49-18.56,1.19-27.63-3.31-9.07-9.95-16.3-18.7-20.38-4.85-2.26-10.03-3.39-15.23-3.39Z"/>
          </g>
          <path class="cls-5" d="m6.3,229.18l.36-.89c.78-1.9,2.47-3.01,3.79-2.48l59.68,24.28c.29.12.39.56.22.99l-2.54,6.25c-.17.43-.55.67-.85.55l-59.68-24.28c-1.32-.54-1.76-2.52-.98-4.42Z"/>
        </g>
        <path class="cls-1" d="m119.67,255.23c.09.11-7.68,6.91-17.36,15.19-9.68,8.28-17.6,14.91-17.69,14.8-.09-.11,7.68-6.91,17.36-15.19,9.68-8.28,17.6-14.91,17.69-14.8Z"/>
        <path class="cls-1" d="m129.67,255.23c.09.11-6.45,5.89-14.62,12.9-8.17,7.02-14.86,12.62-14.95,12.51s6.45-5.88,14.62-12.9c8.16-7.02,14.86-12.62,14.95-12.51Z"/>
        <path class="cls-10" d="m144.39,269.08s-.03-.21-.06-.63c-.03-.43-.07-1.04-.12-1.84-.02-.41-.05-.86-.08-1.35-.05-.5-.16-1.03-.25-1.62-.09-.58-.19-1.21-.3-1.89-.08-.68-.33-1.37-.51-2.11-.68-2.99-2.08-6.53-4.29-10.28-2.23-3.73-5.44-7.63-9.81-10.94-.55-.41-1.11-.82-1.67-1.24-.59-.38-1.2-.74-1.81-1.11-.62-.35-1.21-.78-1.88-1.09-.66-.32-1.33-.64-2-.96-.34-.16-.68-.32-1.02-.48-.35-.13-.71-.26-1.07-.39-.72-.26-1.44-.52-2.17-.79-.74-.24-1.51-.4-2.27-.61-.77-.17-1.53-.45-2.33-.53-1.59-.23-3.2-.55-4.87-.56-.83-.03-1.67-.11-2.51-.1-.84.04-1.69.09-2.55.13-.43.03-.86.03-1.29.08l-1.28.2c-.86.14-1.73.24-2.59.42-1.7.46-3.46.81-5.13,1.51-1.73.55-3.35,1.41-5.02,2.21-.81.44-1.59.95-2.4,1.43-.39.25-.81.47-1.19.75l-1.13.85c-1.57,1.07-2.93,2.42-4.37,3.71-1.3,1.43-2.66,2.84-3.77,4.46l-.89,1.18-.78,1.27-.77,1.27c-.27.42-.52.85-.72,1.31-.43.9-.87,1.81-1.31,2.71-.35.95-.69,1.9-1.04,2.85-1.25,3.86-1.93,7.97-1.99,12.14.05,4.18.73,8.28,1.98,12.15.35.95.7,1.9,1.04,2.85.44.91.87,1.81,1.31,2.72l.33.67.39.64.77,1.28.77,1.27.89,1.18c1.12,1.63,2.48,3.03,3.77,4.46,1.43,1.29,2.8,2.64,4.37,3.71l1.13.85c.38.28.8.5,1.19.75.81.48,1.58.99,2.4,1.43,1.67.8,3.29,1.65,5.02,2.21,1.67.7,3.44,1.04,5.14,1.51.86.18,1.73.28,2.59.42l1.28.2c.43.06.86.05,1.29.08.86.04,1.71.09,2.55.13.84.01,1.68-.07,2.51-.1,1.67,0,3.28-.34,4.87-.56.8-.08,1.56-.35,2.33-.53.76-.21,1.53-.36,2.27-.61.73-.27,1.45-.53,2.17-.79.36-.13.71-.26,1.07-.39.34-.16.68-.32,1.02-.48.67-.32,1.34-.64,2-.96.67-.3,1.26-.73,1.88-1.09.61-.38,1.23-.73,1.81-1.11.56-.42,1.12-.83,1.67-1.24,4.37-3.31,7.59-7.21,9.81-10.94,2.21-3.75,3.61-7.28,4.29-10.28.17-.75.43-1.43.51-2.11.11-.67.21-1.3.3-1.89.09-.58.19-1.12.25-1.62.03-.5.06-.95.08-1.35.05-.8.09-1.41.12-1.84.03-.41.06-.63.06-.63,0,0,0,.21,0,.63-.02.43-.04,1.05-.07,1.84-.02.41-.04.86-.06,1.36-.04.5-.14,1.04-.22,1.63-.09.59-.18,1.22-.28,1.9-.07.68-.32,1.37-.49,2.13-.66,3.01-2.04,6.58-4.24,10.37-2.22,3.77-5.44,7.72-9.84,11.08-.55.42-1.11.84-1.68,1.26-.59.39-1.21.75-1.83,1.13-.63.36-1.22.8-1.9,1.1-.67.32-1.34.65-2.02.98-.34.16-.68.33-1.03.49-.36.13-.72.26-1.08.4-.72.27-1.45.53-2.19.81-.74.25-1.52.41-2.29.62-.78.18-1.54.45-2.36.54-1.61.23-3.24.57-4.92.58-.84.03-1.69.11-2.54.1-.85-.04-1.71-.08-2.58-.13-.43-.03-.87-.03-1.3-.08l-1.3-.2c-.87-.14-1.75-.24-2.62-.42-1.72-.46-3.5-.81-5.2-1.52-1.75-.56-3.4-1.42-5.09-2.23-.82-.45-1.61-.96-2.43-1.45-.4-.25-.83-.47-1.21-.76l-1.15-.86c-1.59-1.09-2.98-2.45-4.43-3.76-1.31-1.45-2.69-2.87-3.83-4.52l-.9-1.2-.79-1.28-.79-1.29-.39-.65-.33-.68c-.44-.91-.88-1.83-1.33-2.75-.35-.96-.71-1.92-1.06-2.89-1.27-3.92-1.96-8.08-2.01-12.31.06-4.23.74-8.39,2.02-12.3.35-.97.71-1.93,1.06-2.89.44-.92.89-1.84,1.33-2.75.2-.46.45-.9.73-1.33l.78-1.29.79-1.28.9-1.2c1.13-1.65,2.51-3.07,3.83-4.52,1.45-1.31,2.84-2.67,4.43-3.75l1.15-.86c.38-.29.81-.51,1.21-.76.82-.48,1.61-1,2.43-1.45,1.69-.81,3.34-1.67,5.09-2.23,1.7-.7,3.48-1.05,5.2-1.52.87-.18,1.76-.28,2.62-.42l1.3-.2c.43-.06.87-.05,1.3-.08.87-.04,1.73-.09,2.58-.13.85-.01,1.7.07,2.54.1,1.69.01,3.31.35,4.92.58.81.09,1.58.36,2.36.54.77.21,1.55.37,2.29.62.74.27,1.47.54,2.19.81.36.13.72.27,1.08.4.34.16.69.33,1.03.49.68.33,1.35.65,2.02.98.67.31,1.27.74,1.9,1.1.61.38,1.24.74,1.83,1.13.57.43,1.13.85,1.68,1.26,4.4,3.36,7.62,7.31,9.84,11.08,2.2,3.79,3.58,7.36,4.24,10.37.17.75.41,1.45.49,2.13.1.68.19,1.31.28,1.9.08.59.18,1.13.22,1.63.02.5.04.95.06,1.36.03.8.05,1.41.07,1.84.01.42,0,.63,0,.63Z"/>
        <path class="cls-10" d="m130.08,289.65s.34-.48.97-1.32c.64-.84,1.52-2.08,2.47-3.69,1.91-3.21,3.96-8.09,4.56-13.78.6-5.7-.4-10.9-1.6-14.43-.59-1.78-1.2-3.18-1.65-4.13-.45-.95-.71-1.47-.68-1.49.02,0,.1.11.25.35.14.24.37.58.61,1.05.51.93,1.17,2.32,1.81,4.1,1.3,3.54,2.38,8.81,1.77,14.6-.61,5.79-2.75,10.72-4.76,13.92-1,1.61-1.93,2.83-2.62,3.63-.33.41-.63.7-.81.91-.19.2-.3.3-.31.29Z"/>
        <path class="cls-10" d="m128.04,293.19c.07.12-.23.43-.68.68-.45.25-.86.36-.93.24-.07-.12.23-.43.68-.68.45-.25.86-.36.93-.24Z"/>
        <path class="cls-1" d="m77.22,285.67s-.1-.15-.24-.46c-.13-.31-.36-.77-.58-1.38-.48-1.21-1.07-2.99-1.56-5.26-1.02-4.51-1.43-11.11.43-18,1.86-6.89,5.54-12.39,8.69-15.77,1.57-1.71,2.98-2.96,4-3.76.5-.42.92-.69,1.19-.9.28-.2.43-.29.44-.28.03.03-.53.48-1.5,1.33-.97.84-2.34,2.13-3.86,3.85-3.05,3.42-6.63,8.87-8.46,15.67-1.84,6.79-1.49,13.31-.57,17.79.45,2.26.98,4.05,1.4,5.27.41,1.22.67,1.89.63,1.91Z"/>
        <path class="cls-1" d="m100.1,237.35c.01.14-1.01.34-2.28.45-1.27.11-2.31.08-2.33-.06-.01-.14,1.01-.34,2.28-.45,1.27-.11,2.31-.08,2.33.06Z"/>
        <g>
          <path class="cls-4" d="m55.18,231.87l.28,2.22,4.31,5.15,3.08,7.91-4.65-1.83s-1.99,9.52-2.77,9.77c-.78.25-3.02-.52-2.79-2.35,0,0-1.12,1.12-2.51.83-1.4-.29-1.73-1.19-1.58-2.93,0,0-1.63,1.33-2.6.5-.97-.83-.88-2.27-.88-2.27,0,0-2.12.18-2.41-.92-.29-1.1-.37-4.24-.12-5.44.25-1.2,1.27-6.09,1.27-6.09l-.78-3.51,12.16-1.06Z"/>
          <path class="cls-6" d="m53.69,247.26c-.12-.02-.45,1.19-.74,2.7-.29,1.52-.43,2.76-.31,2.79.12.02.45-1.19.74-2.7.29-1.52.43-2.76.31-2.79Z"/>
          <path class="cls-6" d="m49.37,246.16c-.12-.02-.41.94-.66,2.15-.24,1.21-.34,2.22-.22,2.24s.41-.94.66-2.15c.24-1.21.34-2.22.23-2.24Z"/>
          <path class="cls-6" d="m45.77,245.14c-.13,0-.23.85-.39,1.87-.17,1.01-.43,1.82-.31,1.87.1.05.57-.72.75-1.8.16-1.07.06-1.93-.05-1.94Z"/>
          <path class="cls-6" d="m58.57,242.57c-.12-.02-.43,1.17-.79,2.64-.35,1.47-.62,2.68-.51,2.71.11.04.58-1.12.93-2.61.36-1.49.48-2.73.36-2.75Z"/>
        </g>
      </g>
      <g>
        <g>
          <path class="cls-10" d="m70.05,98.72c-1.36-3.71-2.7-7.45-3.4-11.34-.7-3.89-.73-7.97.52-11.72.19-.57,1.83-4.4,2.43-4.36.43.03-.54,3.58-.31,3.94,2.18,3.46,2.89,7.68,2.71,11.76-.18,4.08-.9,7.78-1.95,11.72"/>
          <path class="cls-4" d="m101.82,81.19c-.58-9.13-8.07-16.28-17.21-16.44l-1.08-.02c-9.9.41-14.33,9.28-13.65,19.17l1.67,34.8,3.37,3.26c5.79,5.61,15.46,3.14,17.85-4.56h0c-.07-2.79.11-2.59.13-2.59,0,0,9.54-1.31,9.82-10.82.14-4.62-.36-14.19-.9-22.81Z"/>
          <path class="cls-6" d="m92.9,114.82s-6,.25-12.32-3.88c0,0,2.9,6.97,12.4,6.28l-.08-2.4Z"/>
          <path class="cls-10" d="m98.92,90.19c.01.72-.58,1.32-1.33,1.35-.75.03-1.37-.53-1.38-1.25-.01-.72.58-1.32,1.33-1.35.75-.03,1.37.53,1.38,1.25Z"/>
          <path class="cls-10" d="m86.28,90.08c.01.72-.58,1.32-1.33,1.35-.75.03-1.37-.53-1.38-1.25-.01-.72.58-1.32,1.33-1.35.75-.03,1.37.53,1.38,1.25Z"/>
          <path class="cls-10" d="m99.42,86.43c-.17.17-1.19-.61-2.65-.63-1.46-.04-2.55.69-2.7.51-.08-.08.1-.4.57-.73.47-.33,1.26-.65,2.17-.63.91.02,1.67.37,2.1.72.44.35.59.68.51.75Z"/>
          <path class="cls-10" d="m85.81,86.48c-.17.17-1.19-.61-2.65-.63-1.46-.04-2.54.69-2.7.51-.08-.08.1-.4.57-.73.47-.33,1.26-.65,2.17-.63.91.02,1.67.37,2.1.72.44.35.59.68.51.75Z"/>
          <path class="cls-10" d="m90.51,97.95c0-.08.91-.22,2.38-.39.37-.03.73-.1.8-.35.09-.27-.06-.67-.23-1.11-.34-.91-.69-1.86-1.05-2.86-1.46-4.07-2.51-7.42-2.35-7.48.16-.06,1.48,3.2,2.95,7.27.35,1,.69,1.96,1.01,2.88.13.43.37.91.17,1.47-.11.28-.38.47-.62.53-.24.07-.45.07-.64.08-1.48.05-2.4.04-2.41-.04Z"/>
          <path class="cls-10" d="m85.69,81.82c-.18.38-1.62.06-3.34.12-1.73.02-3.15.39-3.34.02-.09-.18.19-.53.78-.86.59-.33,1.5-.62,2.54-.64,1.04-.02,1.96.23,2.56.54.6.31.89.65.81.83Z"/>
          <path class="cls-10" d="m99.99,80.96c-.22.39-1.44.3-2.82.58-1.39.24-2.49.77-2.83.49-.15-.14-.04-.5.4-.92.43-.41,1.22-.85,2.17-1.03.95-.18,1.83-.06,2.38.16.56.23.79.53.7.71Z"/>
          <path class="cls-4" d="m70.53,90.89c-.16-.07-6.5-2.05-6.41,4.46.09,6.51,6.61,5.07,6.61,4.88,0-.19-.21-9.34-.21-9.34Z"/>
          <path class="cls-6" d="m68.61,97.82s-.11.08-.3.17c-.19.09-.51.15-.85.03-.69-.24-1.29-1.32-1.33-2.5-.03-.59.09-1.16.29-1.63.19-.48.49-.82.84-.88.34-.08.59.12.67.3.09.18.05.31.09.32.02.02.14-.11.08-.38-.03-.13-.11-.28-.26-.4-.16-.12-.39-.19-.63-.16-.5.04-.95.51-1.17,1.03-.25.52-.39,1.15-.37,1.82.06,1.31.75,2.53,1.69,2.79.46.11.84-.03,1.03-.19.2-.16.23-.31.21-.32Z"/>
          <path class="cls-10" d="m97.37,70.67c1.04-.61-2.2-3.94-4.81-5.05-3.95-1.68-9.95-2.64-13.53-1.53-4.31,1.33-7.87,3.58-9.95,7.58-2.09,4-2.8,8.62-2.57,13.13.07,1.38.25,2.81,1.01,3.95.94,1.42,2.71,2.28,2.68,4.27-.01.73.21,1.45.72,1.97,1.22,1.24,2.65.02,3.29-1.19,1.37-2.58,1.46-5.63,1.52-8.55.04-2.08.08-4.2-.56-6.18-.34-1.08-.88-2.09-1.16-3.18-.28-1.09-.28-2.34.39-3.26.11-.15.29-.34.52-.55,1.8-1.66,4.37-2.2,6.7-1.44,3.69,1.21,9.99,3,11.6,1.72,2.31-1.84,2.84-3.02,2.84-3.02l1.33,1.33Z"/>
        </g>
        <path class="cls-10" d="m91.46,101.9c.03.11-.33.32-.98.4-.65.08-1.58-.01-2.5-.45-.91-.44-1.58-1.1-1.92-1.66-.35-.56-.41-.97-.31-1.01.22-.11,1.01,1.17,2.6,1.9,1.57.78,3.06.58,3.11.82Z"/>
      </g>
      <g>
        <polygon class="cls-8" points="68.74 120.27 71.36 114.87 86.78 122.21 92.99 115.77 94.6 119.51 86.78 128.38 83.43 128.38 76.38 127.14 68.74 120.27"/>
        <path class="cls-10" d="m86.23,122.26s-.12.71-.59,1.84c-.47,1.13-1.26,2.69-2.48,4.33l-.13.17-.19-.11c-1.17-.68-2.44-1.42-3.77-2.19-2.68-1.57-5.09-3.02-6.82-4.09-1.73-1.07-2.78-1.76-2.75-1.83.04-.06,1.15.52,2.93,1.51s4.22,2.39,6.89,3.96c1.32.78,2.58,1.53,3.75,2.23l-.31.06c2.46-3.18,3.32-5.94,3.45-5.88Z"/>
        <path class="cls-10" d="m94.14,117.14c.05,0,.25.92.11,2.43-.12,1.5-.64,3.59-1.85,5.58-.53.87-1.14,1.64-1.77,2.28l-.17.18-.17-.17c-1.14-1.12-1.96-2.23-2.47-3.04-.51-.82-.74-1.34-.7-1.36.11-.08,1.23,1.9,3.51,4.05h-.35c.59-.62,1.17-1.36,1.68-2.2,1.16-1.91,1.72-3.9,1.93-5.35.23-1.46.16-2.38.25-2.39Z"/>
        <path class="cls-10" d="m97.29,223.38s-.02-.09-.03-.26c0-.2-.02-.45-.03-.77-.02-.71-.04-1.7-.07-2.94-.04-2.56-.12-6.25-.27-10.82-.3-9.13-.92-21.74-2.42-35.6-.76-6.93-1.67-13.51-2.61-19.47-.99-5.96-1.96-11.31-2.92-15.78-.44-2.24-.91-4.25-1.31-6.02-.38-1.77-.74-3.29-1.05-4.53-.28-1.21-.51-2.17-.67-2.86-.07-.3-.12-.55-.16-.75-.03-.17-.05-.26-.04-.26s.04.08.09.25c.06.19.13.44.21.74.19.69.44,1.64.77,2.84.34,1.23.72,2.75,1.14,4.52.42,1.77.92,3.77,1.38,6.01,1,4.46,2.01,9.81,3.03,15.77.97,5.97,1.9,12.56,2.66,19.49,1.51,13.88,2.07,26.51,2.27,35.65.1,4.57.13,8.27.1,10.83-.01,1.25-.02,2.23-.03,2.94,0,.31-.02.56-.02.77,0,.17-.02.26-.03.26Z"/>
      </g>
    </g>
  </g>
</svg>