<?xml version="1.0" encoding="UTF-8"?>
<svg id="Capa_2" data-name="Capa 2" xmlns="http://www.w3.org/2000/svg" viewBox="0 0 275 317.42">
  <defs>
    <style>
      .cls-1, .cls-2, .cls-3 {
        fill: #fff;
      }

      .cls-4 {
        opacity: .5;
      }

      .cls-2, .cls-5 {
        opacity: .4;
      }

      .cls-6 {
        opacity: .6;
      }

      .cls-7 {
        isolation: isolate;
      }

      .cls-8 {
        opacity: .2;
      }

      .cls-9 {
        fill: #00fd00;
      }

      .cls-10 {
        fill: #de5753;
      }

      .cls-11 {
        fill: #85ff2e;
      }

      .cls-12 {
        fill: #00fc00;
      }

      .cls-3, .cls-13, .cls-14 {
        opacity: .7;
      }

      .cls-13, .cls-15 {
        fill: #cffcc2;
      }

      .cls-14 {
        fill: #d0fcac;
      }

      .cls-16 {
        fill: lime;
      }

      .cls-17 {
        fill: #d0fdc3;
      }

      .cls-18 {
        fill: #bcfdc1;
      }

      .cls-19 {
        fill: #407bff;
      }

      .cls-20 {
        fill: #00f700;
      }

      .cls-21 {
        fill: #00fe00;
      }

      .cls-22 {
        fill: #e4897b;
      }

      .cls-23 {
        fill: #263238;
      }
    </style>
  </defs>
  <g id="Interface">
    <g>
      <rect class="cls-17" x="0" y="53.52" width="193.55" height="225.3" rx="7.32" ry="7.32"/>
      <g>
        <rect class="cls-1" x="31.36" y="156.84" width="130.84" height="22.4"/>
        <g class="cls-5">
          <path class="cls-23" d="m43.06,170.22v.59h-4.54v-6.42h4.4v.59h-3.72v2.28h3.32v.58h-3.32v2.38h3.86Z"/>
          <path class="cls-23" d="m43.97,168.04h2.4v.57h-2.4v-.57Z"/>
          <path class="cls-23" d="m55.79,168.01v2.8h-.65v-2.73c0-1.02-.51-1.54-1.38-1.54-.99,0-1.61.64-1.61,1.74v2.53h-.65v-2.73c0-1.02-.51-1.54-1.39-1.54-.98,0-1.61.64-1.61,1.74v2.53h-.65v-4.82h.62v.88c.34-.58.96-.92,1.77-.92s1.42.34,1.71,1.02c.35-.62,1.04-1.02,1.91-1.02,1.17,0,1.94.68,1.94,2.06Z"/>
          <path class="cls-23" d="m61.21,167.82v2.99h-.62v-.75c-.29.5-.86.8-1.66.8-1.09,0-1.76-.57-1.76-1.4,0-.74.48-1.37,1.86-1.37h1.53v-.29c0-.83-.47-1.27-1.37-1.27-.62,0-1.21.22-1.6.57l-.29-.49c.49-.41,1.2-.65,1.96-.65,1.25,0,1.95.62,1.95,1.87Zm-.65,1.54v-.79h-1.51c-.94,0-1.24.37-1.24.86,0,.56.45.91,1.22.91s1.27-.35,1.53-.98Z"/>
          <path class="cls-23" d="m62.83,164.46c0-.25.21-.46.48-.46s.48.2.48.45c0,.27-.2.48-.48.48s-.48-.21-.48-.47Zm.15,1.52h.65v4.82h-.65v-4.82Z"/>
          <path class="cls-23" d="m65.44,164h.65v6.8h-.65v-6.8Z"/>
        </g>
      </g>
      <g>
        <rect class="cls-1" x="31.36" y="187.44" width="130.84" height="22.4"/>
        <g class="cls-5">
          <path class="cls-23" d="m43.54,197.23c0,1.37-.99,2.19-2.62,2.19h-1.72v2.03h-.68v-6.42h2.4c1.63,0,2.62.83,2.62,2.2Zm-.68,0c0-1.03-.68-1.61-1.96-1.61h-1.71v3.21h1.71c1.28,0,1.96-.59,1.96-1.6Z"/>
          <path class="cls-23" d="m48.47,198.46v2.99h-.62v-.75c-.29.5-.86.8-1.66.8-1.09,0-1.76-.57-1.76-1.4,0-.74.48-1.37,1.86-1.37h1.53v-.29c0-.83-.47-1.27-1.37-1.27-.62,0-1.21.22-1.61.57l-.29-.49c.49-.41,1.2-.65,1.96-.65,1.25,0,1.95.62,1.95,1.87Zm-.65,1.54v-.79h-1.51c-.94,0-1.24.37-1.24.86,0,.56.45.91,1.22.91s1.27-.35,1.53-.98Z"/>
          <path class="cls-23" d="m49.57,200.9l.29-.51c.39.3,1.04.54,1.71.54.92,0,1.29-.31,1.29-.79,0-1.26-3.13-.27-3.13-2.17,0-.79.68-1.38,1.91-1.38.62,0,1.3.17,1.71.45l-.28.52c-.42-.29-.93-.41-1.42-.41-.87,0-1.26.34-1.26.8,0,1.3,3.13.32,3.13,2.17,0,.83-.73,1.38-1.99,1.38-.8,0-1.57-.26-1.96-.6Z"/>
          <path class="cls-23" d="m54.05,200.9l.29-.51c.39.3,1.04.54,1.71.54.92,0,1.29-.31,1.29-.79,0-1.26-3.13-.27-3.13-2.17,0-.79.68-1.38,1.91-1.38.62,0,1.3.17,1.71.45l-.28.52c-.42-.29-.93-.41-1.42-.41-.87,0-1.26.34-1.26.8,0,1.3,3.13.32,3.13,2.17,0,.83-.73,1.38-1.99,1.38-.8,0-1.57-.26-1.96-.6Z"/>
          <path class="cls-23" d="m66.2,196.62l-1.82,4.82h-.61l-1.52-3.95-1.52,3.95h-.61l-1.82-4.82h.62l1.51,4.1,1.55-4.1h.56l1.54,4.1,1.53-4.1h.6Z"/>
          <path class="cls-23" d="m66.55,199.03c0-1.43,1.05-2.45,2.46-2.45s2.45,1.02,2.45,2.45-1.04,2.46-2.45,2.46-2.46-1.03-2.46-2.46Zm4.25,0c0-1.13-.76-1.88-1.79-1.88s-1.8.75-1.8,1.88.77,1.88,1.8,1.88,1.79-.75,1.79-1.88Z"/>
          <path class="cls-23" d="m75.22,196.59v.63c-.05,0-.11,0-.16,0-1.01,0-1.62.64-1.62,1.78v2.46h-.65v-4.82h.62v.94c.3-.64.92-.98,1.81-.98Z"/>
          <path class="cls-23" d="m80.75,194.64v6.8h-.62v-.95c-.39.65-1.06,1-1.86,1-1.38,0-2.4-1-2.4-2.46s1.03-2.45,2.4-2.45c.77,0,1.43.33,1.83.95v-2.9h.65Zm-.64,4.39c0-1.13-.77-1.88-1.79-1.88s-1.8.75-1.8,1.88.77,1.88,1.8,1.88,1.79-.75,1.79-1.88Z"/>
        </g>
      </g>
      <rect class="cls-8" x="31.36" y="232.7" width="130.84" height="22.4"/>
      <g class="cls-4">
        <path d="m63.18,222.4h-2.14l-.46,1.02h-.42l1.75-3.83h.4l1.75,3.83h-.43l-.46-1.02Zm-.15-.33l-.92-2.06-.92,2.06h1.84Z"/>
        <path d="m64.62,219.36h.39v4.06h-.39v-4.06Z"/>
        <path d="m67.55,220.52v.38s-.07,0-.09,0c-.6,0-.97.38-.97,1.06v1.47h-.39v-2.88h.37v.56c.18-.38.55-.59,1.08-.59Z"/>
        <path d="m70.73,222.1h-2.41c.04.6.5,1,1.13,1,.35,0,.66-.13.88-.38l.22.25c-.26.31-.66.47-1.11.47-.9,0-1.51-.61-1.51-1.47s.6-1.46,1.41-1.46,1.4.6,1.4,1.46c0,.03,0,.08,0,.12Zm-2.41-.29h2.04c-.05-.56-.46-.96-1.02-.96s-.97.39-1.02.96Z"/>
        <path d="m73.62,221.64v1.79h-.37v-.45c-.18.3-.52.48-.99.48-.65,0-1.05-.34-1.05-.84,0-.44.28-.82,1.11-.82h.92v-.17c0-.49-.28-.76-.82-.76-.37,0-.72.13-.96.34l-.18-.29c.29-.25.72-.39,1.17-.39.75,0,1.17.37,1.17,1.12Zm-.39.92v-.47h-.9c-.56,0-.74.22-.74.52,0,.33.27.54.73.54s.76-.21.92-.59Z"/>
        <path d="m77.32,219.36v4.06h-.37v-.57c-.24.39-.64.6-1.11.6-.82,0-1.44-.6-1.44-1.47s.61-1.46,1.44-1.46c.46,0,.85.2,1.1.57v-1.73h.39Zm-.38,2.62c0-.67-.46-1.12-1.07-1.12s-1.07.45-1.07,1.12.46,1.12,1.07,1.12,1.07-.45,1.07-1.12Z"/>
        <path d="m80.83,220.54l-1.44,3.23c-.24.56-.55.75-.96.75-.27,0-.53-.09-.7-.26l.18-.29c.14.14.32.22.53.22.26,0,.43-.12.6-.48l.13-.28-1.29-2.88h.41l1.09,2.45,1.08-2.45h.38Z"/>
        <path d="m84.99,221.64v1.79h-.37v-.45c-.18.3-.52.48-.99.48-.65,0-1.05-.34-1.05-.84,0-.44.28-.82,1.11-.82h.91v-.17c0-.49-.28-.76-.82-.76-.37,0-.72.13-.96.34l-.18-.29c.29-.25.72-.39,1.17-.39.75,0,1.17.37,1.17,1.12Zm-.39.92v-.47h-.9c-.56,0-.74.22-.74.52,0,.33.27.54.73.54s.76-.21.91-.59Z"/>
        <path d="m92.24,221.75v1.67h-.39v-1.63c0-.61-.31-.92-.83-.92-.59,0-.96.38-.96,1.04v1.51h-.39v-1.63c0-.61-.31-.92-.83-.92-.59,0-.96.38-.96,1.04v1.51h-.39v-2.88h.37v.53c.2-.34.58-.55,1.06-.55s.85.2,1.02.61c.21-.37.62-.61,1.14-.61.7,0,1.16.41,1.16,1.23Z"/>
        <path d="m95.83,222.1h-2.41c.04.6.5,1,1.13,1,.35,0,.66-.13.88-.38l.22.25c-.26.31-.66.47-1.11.47-.9,0-1.51-.61-1.51-1.47s.6-1.46,1.41-1.46,1.4.6,1.4,1.46c0,.03,0,.08,0,.12Zm-2.41-.29h2.04c-.05-.56-.46-.96-1.02-.96s-.97.39-1.02.96Z"/>
        <path d="m101.38,221.75v1.67h-.39v-1.63c0-.61-.31-.92-.83-.92-.59,0-.96.38-.96,1.04v1.51h-.39v-1.63c0-.61-.31-.92-.83-.92-.59,0-.96.38-.96,1.04v1.51h-.39v-2.88h.37v.53c.2-.34.58-.55,1.06-.55s.85.2,1.02.61c.21-.37.62-.61,1.14-.61.7,0,1.16.41,1.16,1.23Z"/>
        <path d="m105.36,221.98c0,.87-.61,1.47-1.44,1.47-.48,0-.88-.21-1.11-.6v.57h-.37v-4.06h.39v1.73c.24-.37.64-.57,1.1-.57.82,0,1.44.59,1.44,1.46Zm-.39,0c0-.67-.47-1.12-1.07-1.12s-1.07.45-1.07,1.12.46,1.12,1.07,1.12,1.07-.45,1.07-1.12Z"/>
        <path d="m108.67,222.1h-2.41c.04.6.5,1,1.13,1,.35,0,.66-.13.88-.38l.22.25c-.26.31-.66.47-1.11.47-.9,0-1.51-.61-1.51-1.47s.6-1.46,1.41-1.46,1.4.6,1.4,1.46c0,.03,0,.08,0,.12Zm-2.41-.29h2.04c-.05-.56-.46-.96-1.02-.96s-.97.39-1.02.96Z"/>
        <path d="m110.92,220.52v.38s-.07,0-.09,0c-.6,0-.97.38-.97,1.06v1.47h-.39v-2.88h.37v.56c.18-.38.55-.59,1.08-.59Z"/>
        <path d="m113.44,220.57c0-.39-.32-.67-.88-.67-.47,0-.81.15-1.05.44l-.29-.22c.3-.36.75-.57,1.36-.57.77,0,1.26.37,1.26.95,0,.94-1,.98-1,1.76h-.41c0-.9,1-.99,1-1.7Zm-1.08,2.6c0-.16.13-.28.28-.28s.29.12.29.28-.13.29-.29.29-.28-.13-.28-.29Z"/>
        <path d="m116.15,219.59h.89v3.11h1.92v.72h-2.81v-3.83Z"/>
        <path d="m119.16,221.95c0-.89.68-1.52,1.62-1.52s1.62.63,1.62,1.52-.68,1.52-1.62,1.52-1.62-.63-1.62-1.52Zm2.37,0c0-.51-.32-.82-.75-.82s-.76.31-.76.82.33.82.76.82.75-.31.75-.82Z"/>
        <path d="m126.01,220.48v2.45c0,1.1-.59,1.6-1.65,1.6-.56,0-1.1-.14-1.45-.41l.34-.61c.25.2.66.33,1.04.33.6,0,.87-.27.87-.81v-.13c-.22.25-.55.37-.93.37-.82,0-1.47-.56-1.47-1.42s.66-1.42,1.47-1.42c.41,0,.75.14.98.42v-.38h.81Zm-.84,1.38c0-.43-.32-.72-.77-.72s-.78.29-.78.72.33.72.78.72.77-.29.77-.72Z"/>
        <path d="m128.26,219.59c0-.27.21-.48.53-.48s.53.2.53.46c0,.28-.21.49-.53.49s-.53-.21-.53-.48Zm.1.89h.85v2.95h-.85v-2.95Z"/>
        <path d="m133.02,221.74v1.69h-.85v-1.56c0-.48-.22-.7-.6-.7-.41,0-.71.25-.71.79v1.46h-.85v-2.95h.82v.35c.23-.25.58-.39.98-.39.7,0,1.22.41,1.22,1.3Z"/>
      </g>
      <rect class="cls-16" x="31.36" y="231.33" width="130.84" height="22.4"/>
      <g>
        <path class="cls-1" d="m79.88,246.01l-1.65-2.36c-.15.01-.32.02-.48.02h-1.9v2.33h-1.1v-7.67h2.99c1.99,0,3.2,1.01,3.2,2.67,0,1.18-.61,2.04-1.69,2.42l1.82,2.57h-1.19Zm-.03-5c0-1.1-.73-1.72-2.14-1.72h-1.86v3.45h1.86c1.4,0,2.14-.64,2.14-1.73Z"/>
        <path class="cls-1" d="m87.8,243.45h-4.71c.13,1.02.95,1.7,2.1,1.7.68,0,1.25-.23,1.68-.7l.58.68c-.53.61-1.33.94-2.29.94-1.87,0-3.12-1.24-3.12-2.97s1.24-2.96,2.91-2.96,2.87,1.21,2.87,2.99c0,.09-.01.22-.02.32Zm-4.71-.76h3.72c-.11-.98-.84-1.67-1.86-1.67s-1.75.68-1.86,1.67Z"/>
        <path class="cls-1" d="m94.84,240.2v5.02c0,2.05-1.04,2.98-3.01,2.98-1.06,0-2.14-.3-2.77-.87l.5-.81c.54.46,1.38.76,2.23.76,1.37,0,1.99-.63,1.99-1.95v-.46c-.5.6-1.26.9-2.09.9-1.68,0-2.95-1.14-2.95-2.82s1.27-2.8,2.95-2.8c.87,0,1.65.32,2.15.95v-.9h1Zm-1.03,2.75c0-1.13-.83-1.88-1.99-1.88s-2,.76-2,1.88.83,1.9,2,1.9,1.99-.78,1.99-1.9Z"/>
        <path class="cls-1" d="m96.66,238.4c0-.38.31-.69.71-.69s.71.3.71.67c0,.39-.3.7-.71.7s-.71-.3-.71-.68Zm.19,1.8h1.05v5.81h-1.05v-5.81Z"/>
        <path class="cls-1" d="m99.17,245.39l.44-.83c.49.35,1.28.6,2.04.6.98,0,1.38-.3,1.38-.79,0-1.3-3.67-.17-3.67-2.49,0-1.04.93-1.74,2.42-1.74.76,0,1.61.2,2.11.53l-.45.83c-.53-.34-1.11-.46-1.68-.46-.92,0-1.37.34-1.37.8,0,1.37,3.68.25,3.68,2.51,0,1.05-.96,1.72-2.51,1.72-.96,0-1.92-.3-2.4-.68Z"/>
        <path class="cls-1" d="m108.66,245.67c-.32.27-.8.41-1.27.41-1.17,0-1.84-.65-1.84-1.82v-3.19h-.99v-.87h.99v-1.27h1.05v1.27h1.67v.87h-1.67v3.14c0,.62.33.98.91.98.31,0,.6-.1.82-.27l.33.76Z"/>
        <path class="cls-1" d="m114.96,243.45h-4.71c.13,1.02.95,1.7,2.1,1.7.68,0,1.25-.23,1.68-.7l.58.68c-.53.61-1.33.94-2.29.94-1.87,0-3.12-1.24-3.12-2.97s1.24-2.96,2.91-2.96,2.87,1.21,2.87,2.99c0,.09-.01.22-.02.32Zm-4.71-.76h3.73c-.11-.98-.84-1.67-1.86-1.67s-1.75.68-1.86,1.67Z"/>
        <path class="cls-1" d="m119.57,240.15v1.02c-.09-.01-.16-.01-.24-.01-1.13,0-1.83.69-1.83,1.96v2.89h-1.05v-5.81h1.01v.98c.37-.68,1.1-1.03,2.11-1.03Z"/>
      </g>
      <g class="cls-6">
        <path class="cls-23" d="m73.87,78.3l.44-.94c.62.56,1.69.97,2.77.97,1.45,0,2.07-.56,2.07-1.3,0-2.05-5.08-.76-5.08-3.87,0-1.3,1.01-2.4,3.21-2.4.98,0,2,.26,2.7.74l-.4.96c-.73-.47-1.56-.68-2.3-.68-1.43,0-2.04.6-2.04,1.33,0,2.05,5.08.77,5.08,3.85,0,1.28-1.03,2.39-3.25,2.39-1.28,0-2.54-.43-3.21-1.06Z"/>
        <path class="cls-23" d="m81.72,70.94c0-.42.34-.76.78-.76s.78.32.78.73c0,.43-.32.77-.78.77s-.78-.32-.78-.74Zm.2,1.97h1.15v6.36h-1.15v-6.36Z"/>
        <path class="cls-23" d="m91.35,72.91v5.49c0,2.24-1.14,3.26-3.3,3.26-1.16,0-2.34-.32-3.03-.95l.55-.89c.59.5,1.51.83,2.45.83,1.5,0,2.18-.7,2.18-2.13v-.5c-.55.66-1.38.98-2.29.98-1.83,0-3.23-1.25-3.23-3.08s1.39-3.07,3.23-3.07c.95,0,1.81.35,2.35,1.04v-.98h1.09Zm-1.13,3.01c0-1.24-.91-2.06-2.18-2.06s-2.19.83-2.19,2.06.91,2.07,2.19,2.07,2.18-.85,2.18-2.07Z"/>
        <path class="cls-23" d="m99.59,75.6v3.66h-1.15v-3.53c0-1.25-.62-1.86-1.71-1.86-1.22,0-2.02.73-2.02,2.11v3.27h-1.15v-6.36h1.1v.96c.47-.65,1.28-1.02,2.29-1.02,1.55,0,2.64.89,2.64,2.76Z"/>
        <path class="cls-23" d="m110.88,72.91v6.36h-1.09v-.96c-.47.66-1.26,1.03-2.16,1.03-1.64,0-2.73-.9-2.73-2.77v-3.66h1.15v3.53c0,1.25.62,1.87,1.72,1.87,1.2,0,1.97-.74,1.97-2.11v-3.29h1.15Z"/>
        <path class="cls-23" d="m119.66,76.08c0,1.96-1.36,3.25-3.21,3.25-.9,0-1.69-.35-2.22-1.03v3.29h-1.15v-8.68h1.1v1.01c.52-.71,1.33-1.07,2.27-1.07,1.86,0,3.21,1.3,3.21,3.24Zm-1.16,0c0-1.34-.92-2.23-2.15-2.23s-2.13.89-2.13,2.23.92,2.24,2.13,2.24,2.15-.89,2.15-2.24Z"/>
      </g>
      <g>
        <rect class="cls-1" x="31.36" y="126.24" width="130.84" height="22.4"/>
        <g class="cls-5">
          <path class="cls-23" d="m38.52,133.79h.68v5.83h3.59v.59h-4.27v-6.42Z"/>
          <path class="cls-23" d="m47.44,137.22v2.99h-.62v-.75c-.29.5-.86.8-1.66.8-1.09,0-1.76-.57-1.76-1.4,0-.74.48-1.37,1.86-1.37h1.53v-.29c0-.83-.47-1.28-1.37-1.28-.62,0-1.21.22-1.61.57l-.29-.49c.49-.41,1.2-.65,1.96-.65,1.25,0,1.95.62,1.95,1.87Zm-.65,1.54v-.79h-1.51c-.94,0-1.24.37-1.24.86,0,.56.45.91,1.22.91s1.27-.35,1.53-.98Z"/>
          <path class="cls-23" d="m48.54,139.66l.29-.51c.39.3,1.04.54,1.71.54.92,0,1.29-.31,1.29-.79,0-1.26-3.13-.27-3.13-2.17,0-.79.68-1.38,1.91-1.38.62,0,1.3.17,1.71.45l-.28.52c-.42-.29-.93-.41-1.42-.41-.87,0-1.26.34-1.26.8,0,1.3,3.13.32,3.13,2.17,0,.83-.73,1.38-1.99,1.38-.8,0-1.57-.26-1.96-.6Z"/>
          <path class="cls-23" d="m56.24,139.91c-.26.23-.64.34-1.02.34-.91,0-1.41-.51-1.41-1.4v-2.92h-.86v-.55h.86v-1.05h.65v1.05h1.47v.55h-1.47v2.88c0,.57.29.88.83.88.27,0,.53-.08.72-.25l.23.47Z"/>
          <path class="cls-23" d="m65.32,133.79v6.42h-.56l-4.13-5.21v5.21h-.68v-6.42h.56l4.14,5.21v-5.21h.67Z"/>
          <path class="cls-23" d="m70.92,137.22v2.99h-.62v-.75c-.29.5-.86.8-1.66.8-1.09,0-1.76-.57-1.76-1.4,0-.74.48-1.37,1.86-1.37h1.53v-.29c0-.83-.47-1.28-1.37-1.28-.62,0-1.21.22-1.6.57l-.29-.49c.49-.41,1.2-.65,1.96-.65,1.25,0,1.95.62,1.95,1.87Zm-.65,1.54v-.79h-1.51c-.94,0-1.24.37-1.24.86,0,.56.45.91,1.22.91s1.27-.35,1.53-.98Z"/>
          <path class="cls-23" d="m80.65,137.41v2.8h-.65v-2.73c0-1.02-.51-1.54-1.38-1.54-.99,0-1.61.64-1.61,1.74v2.53h-.65v-2.73c0-1.02-.51-1.54-1.39-1.54-.98,0-1.61.64-1.61,1.74v2.53h-.65v-4.82h.62v.88c.34-.58.96-.92,1.77-.92s1.42.34,1.71,1.02c.35-.62,1.04-1.02,1.91-1.02,1.17,0,1.94.68,1.94,2.06Z"/>
          <path class="cls-23" d="m86.64,138h-4.04c.07,1.01.84,1.68,1.9,1.68.59,0,1.11-.21,1.48-.63l.37.42c-.43.51-1.1.79-1.86.79-1.5,0-2.53-1.03-2.53-2.46s1-2.45,2.36-2.45,2.34,1,2.34,2.45c0,.05,0,.13,0,.2Zm-4.04-.49h3.42c-.08-.94-.77-1.6-1.71-1.6s-1.62.66-1.71,1.6Z"/>
        </g>
      </g>
      <g>
        <rect class="cls-1" x="31.36" y="95.63" width="130.84" height="22.4"/>
        <g class="cls-5">
          <path class="cls-23" d="m39.2,103.77v2.52h3.32v.59h-3.32v2.72h-.68v-6.42h4.4v.59h-3.72Z"/>
          <path class="cls-23" d="m43.95,103.26c0-.25.21-.46.48-.46s.48.2.48.45c0,.27-.2.48-.48.48s-.48-.21-.48-.47Zm.15,1.52h.65v4.82h-.65v-4.82Z"/>
          <path class="cls-23" d="m48.99,104.74v.63c-.05,0-.11,0-.16,0-1.01,0-1.62.64-1.62,1.78v2.46h-.65v-4.82h.62v.94c.3-.64.92-.98,1.81-.98Z"/>
          <path class="cls-23" d="m49.53,109.05l.29-.51c.39.3,1.04.54,1.71.54.92,0,1.29-.31,1.29-.79,0-1.26-3.13-.27-3.13-2.17,0-.79.68-1.38,1.91-1.38.62,0,1.3.17,1.71.45l-.28.52c-.42-.29-.93-.41-1.42-.41-.87,0-1.26.34-1.26.8,0,1.3,3.13.32,3.13,2.17,0,.83-.73,1.38-1.99,1.38-.8,0-1.57-.26-1.96-.6Z"/>
          <path class="cls-23" d="m57.23,109.31c-.26.23-.64.34-1.02.34-.91,0-1.41-.51-1.41-1.4v-2.92h-.86v-.55h.86v-1.05h.65v1.05h1.47v.55h-1.47v2.88c0,.57.29.88.83.88.27,0,.53-.08.72-.25l.23.47Z"/>
          <path class="cls-23" d="m66.31,103.18v6.42h-.56l-4.13-5.21v5.21h-.68v-6.42h.56l4.14,5.21v-5.21h.67Z"/>
          <path class="cls-23" d="m71.91,106.61v2.99h-.62v-.75c-.29.5-.86.8-1.66.8-1.09,0-1.76-.57-1.76-1.4,0-.74.48-1.37,1.86-1.37h1.53v-.29c0-.83-.47-1.27-1.37-1.27-.62,0-1.21.22-1.61.57l-.29-.49c.49-.41,1.2-.65,1.96-.65,1.25,0,1.95.62,1.95,1.87Zm-.65,1.54v-.79h-1.51c-.94,0-1.24.37-1.24.86,0,.56.45.91,1.22.91s1.27-.35,1.53-.98Z"/>
          <path class="cls-23" d="m81.64,106.81v2.8h-.65v-2.73c0-1.02-.51-1.54-1.38-1.54-.99,0-1.61.64-1.61,1.74v2.53h-.65v-2.73c0-1.02-.51-1.54-1.39-1.54-.98,0-1.61.64-1.61,1.74v2.53h-.65v-4.82h.62v.88c.34-.58.96-.92,1.77-.92s1.42.34,1.71,1.02c.35-.62,1.04-1.02,1.91-1.02,1.17,0,1.94.68,1.94,2.06Z"/>
          <path class="cls-23" d="m87.63,107.39h-4.04c.07,1.01.84,1.68,1.9,1.68.59,0,1.11-.21,1.48-.63l.37.42c-.43.51-1.1.79-1.86.79-1.5,0-2.53-1.03-2.53-2.46s1-2.45,2.36-2.45,2.34,1,2.34,2.45c0,.05,0,.13,0,.2Zm-4.04-.49h3.42c-.08-.94-.77-1.6-1.71-1.6s-1.62.66-1.71,1.6Z"/>
        </g>
      </g>
    </g>
  </g>
  <g id="Speech_bubble" data-name="Speech bubble">
    <g>
      <path class="cls-14" d="m262.9,0h-28.73c-4.89,0-8.85,3.96-8.85,8.85v25c0,4.89,3.96,8.85,8.85,8.85h8.39l-2.03,7.89,7.98-7.89h14.39c4.89,0,8.85-3.96,8.85-8.85V8.85c0-4.89-3.96-8.85-8.85-8.85Z"/>
      <g>
        <g class="cls-7">
          <circle class="cls-11" cx="248.54" cy="21.24" r="14.26" transform="translate(57.78 181.96) rotate(-45)"/>
        </g>
        <path class="cls-1" d="m247.04,27.61c-.38,0-.75-.17-1-.46l-5.59-6.59c-.47-.55-.4-1.38.15-1.85.55-.47,1.38-.4,1.85.15l4.6,5.41,7.59-8.94c.47-.55,1.3-.62,1.85-.15.55.47.62,1.3.15,1.85l-8.59,10.12c-.25.29-.61.46-1,.46Z"/>
      </g>
    </g>
  </g>
  <g id="Character">
    <g>
      <path class="cls-18" d="m257.92,154.25s-17.41-2.19-43.79,5.04c0,0-4.25-47.14-3.74-53.61s40.72-4.58,40.72-4.58c0,0,1.04,18.87,3.63,30.25,2.59,11.38,4.51,20.72,3.18,22.9Z"/>
      <polygon class="cls-22" points="201.41 310.31 208.51 312.32 210.2 301.27 211.11 295.36 204.01 293.35 202.8 301.27 201.41 310.31"/>
      <polygon class="cls-22" points="242.23 310.89 249.55 311.86 249.62 301.27 249.67 294.69 242.34 293.73 242.29 301.27 242.23 310.89"/>
      <polygon class="cls-8" points="242.34 293.73 242.29 301.27 249.62 301.27 249.67 294.69 242.34 293.73"/>
      <polygon class="cls-8" points="202.8 301.27 210.2 301.27 211.11 295.36 204.01 293.35 202.8 301.27"/>
      <g>
        <path class="cls-22" d="m169.89,109.5l-7.05-2.08,1.29,8.05s6.4,1.48,7.02-1.85l-1.26-4.12Z"/>
        <polygon class="cls-22" points="155.81 109.29 159.26 115.83 164.13 115.47 162.84 107.42 155.81 109.29"/>
      </g>
      <polygon class="cls-22" points="179.62 111.56 168.05 108.97 166.99 114.59 177.5 117.15 179.62 111.56"/>
      <path class="cls-15" d="m214.65,106.49s-.25.3-.68.81c-1.46,1.71-5.03,5.84-8.69,9.4-3,2.9-6.04,5.43-8.02,5.94-5.67,1.46-26.28-4.61-26.28-4.61l2.13-8.36s19.2,2.55,20.69,2.55c1.13,0,12.81-16.92,15.64-18.31l5.21,12.58Z"/>
      <path class="cls-8" d="m213.97,107.3c-1.46,1.71-5.03,5.84-8.69,9.4.74-5.86,2.89-11.24,5.72-14.64.3-.36.6-.66.9-.88l2.07,6.12Z"/>
      <g>
        <path class="cls-23" d="m201.5,309.21l8.06-.22c.3,0,.57.19.65.48l1.69,6.49c.18.67-.32,1.33-1.02,1.34-2.91.03-7.12-.03-10.78.07-4.27.12-6.99-.09-12.01.04-3.03.08-3.98-2.95-2.72-3.26,5.73-1.41,9.48-1.13,14.36-4.33.53-.35,1.12-.6,1.76-.62Z"/>
        <path class="cls-12" d="m200.81,310.24s-.01,0-.02,0c-1.18.27-3.29.61-4.12-.08-.25-.21-.37-.49-.36-.84,0-.21.1-.37.27-.47.88-.53,3.9.9,4.24,1.06.07.03.11.1.1.18,0,.07-.05.12-.11.14Zm-3.99-1.11s-.04.02-.06.03c-.07.04-.1.1-.1.19,0,.24.07.42.23.55.47.39,1.69.43,3.31.11-1.19-.52-2.82-1.09-3.37-.88Z"/>
        <path class="cls-20" d="m200.81,310.24s-.09.02-.13,0c-.91-.37-2.73-1.92-2.62-2.75.02-.2.16-.44.63-.5.36-.05.69.05.98.27.97.74,1.24,2.72,1.25,2.8,0,.06-.02.12-.07.16-.01.01-.03.02-.04.02Zm-2.25-2.87c-.14.05-.15.13-.16.16-.06.5,1.18,1.72,2.11,2.24-.12-.58-.42-1.75-1.06-2.24-.22-.17-.46-.24-.72-.2-.07,0-.13.02-.18.04Z"/>
      </g>
      <g>
        <path class="cls-23" d="m242.52,309.21l8.06-.22c.3,0,.57.19.65.48l1.69,6.49c.18.67-.32,1.33-1.02,1.34-2.91.03-7.12-.03-10.78.07-4.27.12-6.99-.09-12.01.04-3.03.08-3.98-2.95-2.72-3.26,5.73-1.41,9.48-1.13,14.36-4.33.53-.35,1.12-.6,1.76-.62Z"/>
        <path class="cls-21" d="m241.83,310.24s-.01,0-.02,0c-1.18.27-3.29.61-4.12-.08-.25-.21-.37-.49-.36-.84,0-.21.1-.37.27-.47.88-.53,3.9.9,4.24,1.06.07.03.11.1.1.18,0,.07-.05.12-.11.14Zm-3.99-1.11s-.04.02-.06.03c-.07.04-.1.1-.1.19,0,.24.07.42.23.55.47.39,1.69.43,3.31.11-1.19-.52-2.82-1.09-3.37-.88Z"/>
        <path class="cls-9" d="m241.83,310.24s-.09.02-.13,0c-.91-.37-2.73-1.92-2.62-2.75.02-.2.16-.44.63-.5.36-.05.69.05.98.27.97.74,1.24,2.72,1.25,2.8,0,.06-.02.12-.07.16-.01.01-.03.02-.04.02Zm-2.25-2.87c-.14.05-.15.13-.16.16-.06.5,1.18,1.72,2.11,2.24-.12-.58-.42-1.75-1.06-2.24-.22-.17-.46-.24-.72-.2-.07,0-.13.02-.18.04Z"/>
      </g>
      <path class="cls-23" d="m257.33,149.95c3.88,16.82-2.78,149.07-2.78,149.07h-12.86l-5.5-110.22-20.26,110.22-13.75-1c8.99-85.38,16.93-136.35,16.93-136.35l-.02-6.44,38.23-5.27Z"/>
      <path class="cls-2" d="m202.19,298.01l13.75,1,15.94-86.76,4.31-23.45,5.5,110.21h12.86s6.66-132.25,2.78-149.06l-38.23,5.27.02,6.44s-7.94,50.97-16.93,136.35Z"/>
      <path class="cls-23" d="m250.4,87.68c-.46,8.24-.11,16.45.61,24.1.53,5.6,1.28,10.89,2.07,15.66,1.85,11.19,3.95,19.58,4.25,22.51-5.6.77-26.72,3.69-38.23,5.27-13.94-38.98-8.69-61.66-8.69-61.66,0,0,3.99-1.7,8.77-3,.63-.17,1.27-.33,1.93-.48,4.24-.98,11.34-1.8,16.25-2.24,1.03-.09,2.09-.16,3.11-.21,5.22-.24,9.93.06,9.93.06Z"/>
      <g>
        <path class="cls-22" d="m229.94,70.14c.28,5.35.85,15.39,5.3,17.94,0,0-2.77,5.27-8.76,5.81-4.53.41-4.23-4.06-4.23-4.06,2.62-1.96,1.99-5.27,0-9l7.7-10.69Z"/>
        <path class="cls-8" d="m226.8,74.5l-4.56,6.32c.48.88.9,1.79,1.2,2.7,2.11-.84,4.51-3.96,4.17-6.29-.17-1.16-.49-2.25-.81-2.73Z"/>
      </g>
      <g>
        <path class="cls-23" d="m210.44,59.38c-.87,2.78-.39,8.48,3.48,6.62s-1.98-11.39-3.48-6.62Z"/>
        <path class="cls-22" d="m230.44,63.13c.43,7.13,1.04,11.29-2.11,15.33-4.73,6.07-13.89,3.81-16.45-3.07-2.3-6.19-2.61-16.82,4-20.41,6.51-3.54,14.13,1.03,14.56,8.16Z"/>
        <path class="cls-23" d="m225.44,59.25v-7.97s8.48-.63,8.11,3.71c4.7,2.33,2.48,9.64-3.83,13.22-3.46-2.77-3.06-9.43-3.06-9.43-.37.17-.78.32-1.21.47Z"/>
        <path class="cls-22" d="m233.89,68.7c-.34,1.89-1.53,3.44-2.85,4.31-1.99,1.31-3.72-.3-3.79-2.55-.06-2.03.89-5.16,3.18-5.56,2.26-.4,3.86,1.64,3.46,3.8Z"/>
        <path class="cls-23" d="m219.91,66.31c.07.58-.18,1.08-.56,1.12-.38.04-.74-.39-.81-.97-.07-.58.18-1.08.56-1.12.38-.04.74.39.81.97Z"/>
        <path class="cls-23" d="m213.37,67.04c.07.58-.18,1.08-.56,1.12-.38.04-.74-.39-.81-.97-.07-.58.18-1.08.56-1.12.38-.04.74.39.81.97Z"/>
        <path class="cls-10" d="m215.48,67.1s-.96,3.35-2.23,5.07c1.12.79,2.81.16,2.81.16l-.58-5.23Z"/>
        <path class="cls-23" d="m219.43,74.19c-.23.06-.48.1-.75.13-.09.01-.18-.06-.19-.15-.01-.09.06-.18.15-.19,2.54-.29,3.51-2.18,3.52-2.2.04-.08.14-.12.23-.08.09.04.12.14.08.23-.04.08-.87,1.71-3.04,2.26Z"/>
        <path class="cls-23" d="m221.67,63.98c-.12.03-.24,0-.33-.1-1.06-1.1-2.3-.89-2.31-.89-.19.03-.37-.09-.4-.27-.04-.18.09-.36.27-.4.07-.01,1.62-.28,2.94,1.09.13.14.13.35,0,.48-.04.04-.1.07-.15.08Z"/>
        <path class="cls-23" d="m210.28,65.11c-.06.02-.13.01-.2,0-.18-.06-.27-.26-.21-.44.62-1.78,2.14-2.15,2.21-2.18.18-.04.37.07.42.25.05.18-.06.37-.25.41-.06.01-1.24.32-1.73,1.75-.04.11-.13.19-.24.22Z"/>
        <path class="cls-23" d="m229.2,62.21s-4.97-1.82-7.28-4.72c0,0-4.54,1.19-5.47,3.03,0,0-1.57-1.32-.4-3.03,0,0-3.4.72-4.07,3.03,0,0-1.7-.58-1.59-3.03,0,0-1.51.57-1.99,3.03,0,0-3.76-7.81,8.63-10.05,0,0-.98-.41-2.9-.49,0,0,8.64-3.49,15.5-.29,6.86,3.19,5.6,9.33-.43,12.53Z"/>
      </g>
      <g>
        <path class="cls-21" d="m260.28,156.68l-11.99,1.6s-4.95-34.59-7.13-45.76v-23.86l6.27-1.65,4.83,1.65c1.16,3.87,2.18,8.95,3.07,14.6.59,3.74,1.12,7.74,1.59,11.79.65,5.52,1.19,11.14,1.65,16.4.72,8.49,1.2,16.01,1.46,20.59.17,2.92.25,4.64.25,4.64Z"/>
        <path class="cls-19" d="m241.16,112.51s1-16.83,6.27-25.51c0,0-.13-2.48-1.19-2.88-1.05-.4-5.08,1.98-5.08,1.98,0,0-2.51-1.71-3.07-.92s-1.89,6.14,3.07,27.34Z"/>
        <path class="cls-13" d="m241.16,112.51s1-16.83,6.27-25.51c0,0-.13-2.48-1.19-2.88-1.05-.4-5.08,1.98-5.08,1.98,0,0-2.51-1.71-3.07-.92s-1.89,6.14,3.07,27.34Z"/>
      </g>
      <g>
        <path class="cls-9" d="m213.88,161.31l1.37.99s-1.98-11.15-1.18-39.35c.04-1.36.09-2.67.14-3.92,1.02-23.86,4.72-28.2,4.96-28.46l-3.46,1.18-6.27,2.16c-1.85,20.36,4.44,67.4,4.44,67.4Z"/>
        <path class="cls-19" d="m214.42,114.92s-3.46-16.35-2.43-21.99c1.03-5.64,4.72-3.13,4.72-3.13,0,0,3.39-2.74,4.4.28,0,0-4.66,3.28-6.69,24.85Z"/>
        <path class="cls-3" d="m214.42,114.92s-3.46-16.35-2.43-21.99c1.03-5.64,4.72-3.13,4.72-3.13,0,0,3.39-2.74,4.4.28,0,0-4.66,3.28-6.69,24.85Z"/>
      </g>
      <path class="cls-8" d="m256.92,115.05c-5.12-2.87-5.8-10.36-5.8-10.36.31-.12,2.21-.77,4.21-1.43.59,3.74,1.12,7.74,1.59,11.79Z"/>
      <path class="cls-8" d="m231.88,212.25l4.31-23.45-.83-12.41s-5.91,21.52-3.48,35.86Z"/>
      <path class="cls-8" d="m260.03,152.04c-3.22-.22-6.01-.43-6.01-.43l-.61-13.09s1.04-.87,3.37-.62c0,0,1.05-2.56,1.79-6.45.72,8.49,1.2,16.01,1.46,20.59Z"/>
      <g>
        <polygon class="cls-22" points="261.13 131.43 254.86 141.5 259.82 144.35 265.71 135.28 261.13 131.43"/>
        <path class="cls-15" d="m252.01,88.53c4.22.46,22.16,25.08,22.95,32.5.79,7.42-10.54,20.23-10.54,20.23l-7.57-4.45s7.69-11.81,8.08-14.96-14.05-16.07-14.05-16.07c0,0-1.58-3.8-1.78-9.26-.2-5.46,2.9-7.98,2.9-7.98Z"/>
        <path class="cls-17" d="m253.41,138.52s6.45,1.38,9.05,5.44c0,0-2.69,8.45-4.62,9.37-1.93.92-6.72.92-6.72.92,0,0-.31-9.4,2.29-15.73Z"/>
      </g>
    </g>
  </g>
</svg>