<?xml version="1.0" encoding="UTF-8"?>
<svg id="Capa_2" data-name="Capa 2" xmlns="http://www.w3.org/2000/svg" viewBox="0 0 325.64 358.82">
  <defs>
    <style>
      .cls-1 {
        fill: #c8856a;
      }

      .cls-2, .cls-3 {
        fill: #fff;
      }

      .cls-4 {
        fill: #37474f;
      }

      .cls-5 {
        fill: #455a64;
      }

      .cls-6 {
        opacity: .2;
      }

      .cls-7 {
        fill: #f28f8f;
      }

      .cls-8 {
        fill: #e0e0e0;
      }

      .cls-9 {
        fill: #85ff2e;
      }

      .cls-3 {
        opacity: .7;
      }

      .cls-10 {
        opacity: .15;
      }

      .cls-11 {
        fill: #d0fdc3;
      }

      .cls-12 {
        opacity: .1;
      }

      .cls-13 {
        fill: #af6152;
      }

      .cls-14 {
        fill: #b16668;
      }

      .cls-15 {
        fill: #263238;
      }

      .cls-16 {
        fill: #ffa8a7;
      }
    </style>
  </defs>
  <g id="Character_2" data-name="Character 2">
    <g id="Chartacter">
      <g id="Bottom">
        <g>
          <polygon points="255.28 327.97 249.05 326.11 250.88 322.14 254.8 325.24 255.28 327.97"/>
          <path class="cls-15" d="m261.14,317.35s.42,3.72.53,4.89c.11,1.17-5.08,5.08-6.38,5.74l-.48-2.73c-1.1,1.13-1.72,2.53-2.86,4.59-.95,1.72-2.12,4.95-4.86,7.25-4.06,3.4-10.55,5.34-17.24,5.88-6.68.54-10.59-.81-12.56-2.08-1.97-1.27-2.64-2.82-2.24-4.44.4-1.61,46.1-19.1,46.1-19.1Z"/>
          <g>
            <path class="cls-4" d="m242.64,305.47l-.18-2.16c-1.24.02-1.24,3.16-2.91,6-2.25,3.81-5.6,8.61-8.9,11.7-6.52,6.1-12.41,10.01-15.32,12.76-3.89,3.67,3.49,8.87,14.39,7.78,5.41-.54,14.93-3.54,17.5-6.66,2.57-3.12,4.02-7.87,6.08-10.14,2.07-2.28,6.62-4.69,7.85-7.39.67-1.49.13-4.85-.45-7.71-.53-2.62-.8-6.66-2.38-6.26l-.05,1.36c-.6,1.19-2.02,3.16-6.36,4.06-2.17.45-8.67.94-9.26-3.33Z"/>
            <path class="cls-10" d="m248.4,309.07c-2.1-.07-4.37-.61-5.33-2.33-.01-.02-.03-.03-.04-.05,0,0,.64,2-1.22,4.22-1.85,2.23-13.5,17.87-13.5,17.87,0,0,10.91-12.96,13.01-15.41,3.1-3.61,4.11-4.06,7.09-4.3,0,0,0,0-.01,0Z"/>
          </g>
          <g>
            <path class="cls-10" d="m245.85,313.19c.06.34.4.57.76.52.37-.06.62-.38.56-.72-.06-.34-.4-.57-.76-.52-.36.06-.61.38-.56.72Z"/>
            <path class="cls-10" d="m242.78,316.67c.06.34.4.57.76.52.37-.06.61-.38.56-.72-.06-.34-.4-.57-.76-.52-.37.06-.62.38-.56.72Z"/>
            <path class="cls-10" d="m239.71,320.15c.06.34.4.57.76.52.37-.06.62-.38.56-.72-.06-.34-.4-.57-.76-.52-.37.06-.62.38-.56.72Z"/>
            <path class="cls-10" d="m236.64,323.63c.06.34.4.57.76.52.36-.06.62-.38.56-.72-.06-.34-.4-.57-.76-.52-.36.06-.61.38-.56.72Z"/>
            <path class="cls-10" d="m233.57,327.12c.06.34.4.57.76.52.36-.06.62-.38.56-.72-.06-.34-.4-.57-.76-.52-.37.06-.62.38-.56.72Z"/>
          </g>
          <path class="cls-15" d="m246.55,313.34c.06,0,.12-.04.17-.08.1-.1.09-.26-.02-.35-.14-.12-3.49-2.86-7.68-2.44,0,0,0,0,0,0-.15.02-.25.14-.24.28.02.14.15.24.3.22,3.96-.4,7.24,2.29,7.27,2.31.06.05.14.07.21.06Z"/>
          <path class="cls-15" d="m243.47,316.81c.06,0,.12-.04.17-.08.1-.1.09-.26-.02-.35-.14-.12-3.49-2.86-7.69-2.44,0,0,0,0,0,0-.15.02-.25.14-.24.28.01.14.15.24.3.22,3.95-.4,7.24,2.29,7.27,2.31.06.05.14.07.21.06Z"/>
          <path class="cls-15" d="m240.41,320.3c.06,0,.12-.04.17-.08.1-.1.09-.26-.02-.35-.14-.12-3.49-2.86-7.69-2.44,0,0,0,0,0,0-.14.02-.25.14-.23.28.01.14.15.24.3.22,3.95-.4,7.24,2.29,7.27,2.31.06.05.14.07.21.06Z"/>
          <path class="cls-15" d="m237.33,323.78c.06,0,.12-.04.17-.08.1-.1.09-.26-.02-.35-.14-.12-3.49-2.86-7.69-2.44,0,0,0,0,0,0-.15.02-.25.14-.23.28.01.14.15.24.3.22,3.95-.4,7.24,2.29,7.27,2.31.06.05.14.07.21.06Z"/>
          <path class="cls-15" d="m234.26,327.26c.06,0,.12-.04.17-.08.1-.1.09-.26-.02-.35-.14-.12-3.49-2.86-7.69-2.44,0,0,0,0,0,0-.15.02-.25.14-.24.28.01.14.15.24.3.22,3.95-.4,7.24,2.29,7.27,2.31.06.05.14.07.21.06Z"/>
        </g>
        <g>
          <g>
            <path class="cls-15" d="m291.44,344.77c.63,4.93,1.67,8.17,3.74,10.98,2.07,2.81,6.06,3.36,9.07,2.96,4.23-.56,8.52-3.03,10.46-8.52,1.17-3.3.74-7.2-.37-11.75l-22.89,6.33Z"/>
            <path class="cls-4" d="m305.35,308.04c1.49.04,2.36,6.66,3.65,13.27,1.38,7.08,3.98,10.96,5.05,15.72,1.49,6.61,1.19,9.63-1.05,13.8-2.24,4.16-12.83,8.76-17.58,3.19-3.87-4.54-4.36-9.76-4.47-16.44-.12-6.91-.14-11.77-.79-16.99-.62-4.99-1.3-9.81-.06-10.43.15.73.3,1.66.46,2.37.12.55.44,3.25,1.27,3.23.03-.64-.02-1.24-.11-1.88-.08-.56-.07-1.18.3-1.63.37-.45,1-.63,1.6-.77,1.44-.34,2.88-.66,4.35-.85.73-.1,1.47-.17,2.21-.2.6-.02,3.3-.21,3.88-.04.36.1.69.32.84.64.11.24.11.5.13.76.03.46.12.92.28,1.36.07.19.23.43.44.37.17-.05.22-.25.21-.42-.05-.81-.19-1.39-.3-2.32-.05-.43-.16-1.02-.2-1.45-.03-.43-.07-.86-.13-1.28Z"/>
            <path class="cls-10" d="m308.74,338.95c.05.26-.15.51-.43.55-.28.04-.55-.14-.59-.4-.05-.26.15-.51.43-.55.28-.04.55.14.59.4Z"/>
            <path class="cls-10" d="m307.94,334.36c.05.26-.15.51-.43.55-.28.04-.55-.14-.59-.4-.05-.26.15-.51.43-.55.28-.04.55.14.59.4Z"/>
            <path class="cls-10" d="m307.19,330.04c.05.26-.15.51-.43.55-.28.04-.55-.14-.59-.4-.05-.26.15-.51.43-.55.28-.04.55.14.59.4Z"/>
            <path class="cls-10" d="m306.45,325.77c.05.26-.15.51-.43.55-.28.04-.55-.14-.59-.4-.05-.26.15-.51.43-.55.28-.04.55.14.59.4Z"/>
            <path class="cls-10" d="m294.79,327.03c.05.26-.15.51-.43.55-.28.04-.55-.14-.59-.4-.05-.26.15-.51.43-.55.28-.04.55.14.59.4Z"/>
            <path class="cls-10" d="m295.54,331.33c.05.26-.15.51-.43.55-.28.04-.55-.14-.59-.4-.05-.26.15-.51.43-.55.28-.04.55.14.59.4Z"/>
            <path class="cls-10" d="m296.29,335.65c.05.26-.15.51-.43.55-.28.04-.55-.14-.59-.4-.05-.26.15-.51.43-.55.28-.04.55.14.59.4Z"/>
            <path class="cls-10" d="m297.09,340.24c.05.26-.15.51-.43.55-.28.04-.55-.14-.59-.4-.05-.26.15-.51.43-.55.28-.04.55.14.59.4Z"/>
            <polygon class="cls-10" points="301.59 342.2 295.5 310.23 297.41 310.1 301.59 342.2"/>
          </g>
          <g>
            <path class="cls-15" d="m308.27,339.26s-.05,0-.08,0c-3.46-.54-9.27.08-11.48,1.23-.13.07-.29.02-.36-.1-.07-.12-.03-.27.1-.33,2.35-1.23,8.2-1.85,11.82-1.29.14.02.24.15.22.28-.02.11-.11.19-.22.2Z"/>
            <path class="cls-15" d="m307.47,334.68s-.09,0-.14-.02c-2.68-1.02-8.9-.07-11.43,1.25-.13.07-.29.02-.36-.1-.07-.12-.03-.27.1-.33,2.64-1.38,9.05-2.36,11.88-1.28.14.05.2.19.15.32-.04.08-.12.14-.2.15Z"/>
            <path class="cls-15" d="m306.72,330.35s-.09,0-.14-.02c-2.68-1.02-8.89-.07-11.42,1.25-.13.07-.29.02-.36-.1-.07-.12-.03-.27.1-.33,2.64-1.38,9.05-2.36,11.88-1.28.14.05.2.19.15.32-.04.08-.12.14-.2.15Z"/>
            <path class="cls-15" d="m305.97,326.09s-.09,0-.14-.02c-2.68-1.02-8.9-.07-11.43,1.25-.12.07-.29.02-.36-.1-.07-.12-.03-.27.1-.33,2.64-1.38,9.05-2.36,11.88-1.28.14.05.2.19.15.32-.04.08-.12.14-.2.15Z"/>
          </g>
        </g>
        <g>
          <path class="cls-15" d="m300.73,150.09c.86,6.27,2.25,11.74,3.02,18.27,4.21,35.49,3.94,75.84,3.94,75.84.47,3.07-.19,11.23,2.19,26.35,2.51,15.95,1,50.16,1,50.16,0,0-12.62,4.41-22.5,1.88,0,0-9.59-51.2-12.75-70.52-3.57-21.83-8.63-49.97-8.63-49.97l-3.31,33.8s1.26,11.53,1.31,19.64c.06,9.43-4.05,55-4.05,55,0,0-12.69,7.86-23.17,1.15,0,0-4.96-62.3-5.82-73.61-1.7-22.18-.59-64.42-1.2-93.14l69.97,5.14Z"/>
          <path d="m278.99,190.4c.9,9.74,1.92,19.47,3.02,29.19.54,4.86,1.11,9.72,1.7,14.58l.88,7.29.46,3.64c.14,1.21.41,2.41.6,3.62,1.71,9.64,4.34,27.15,6.21,36.77,1.86,9.62,3.85,19.22,5.97,28.79-1.35-9.7-2.83-19.37-4.45-29.02-1.61-9.65-4.12-27.17-5.88-36.8-.2-1.21-.48-2.4-.63-3.61l-.48-3.64-.98-7.27c-.65-4.84-1.32-9.69-2.02-14.53-1.38-9.68-2.84-19.35-4.42-29.02Z"/>
          <path d="m236.25,192.54c-.62,9.13-.73,18.28-.68,27.42.09,9.12.14,18.31.98,27.4.7,9.11,1.75,24.38,2.58,33.48.81,9.1,1.74,18.19,2.8,27.27-.32-9.13-.76-18.26-1.32-27.37-.53-9.12-1.5-24.39-2.17-33.5l-.54-6.83-.13-1.71-.07-1.7-.13-3.42-.52-13.68-.47-13.69c-.18-4.56-.26-9.13-.33-13.7Z"/>
          <path d="m266.99,202.11l-5.39-22.01s-11.88-1-18.18-5.76c0,0,4.24,6.5,15.5,8.56l5.23,19.42-.47,33.59,3.31-33.8Z"/>
        </g>
      </g>
      <g id="Top">
        <g id="Arm">
          <g id="Arm-2" data-name="Arm">
            <path class="cls-1" d="m182.48,91.05c-4-1.63-5.48-4.16-7.71-6.12-2.84-2.49-6.02-3.78-10.82-6.48-.82-.46-1.65-.91-2.48-1.36-.4-.22-.82-.42-1.18-.69-.35-.25-.65-.45-1.1-.12-.31.24-.47.63-.54,1.01-.24,1.27.29,2.56,1.08,3.56.79,1,1.82,1.78,2.78,2.62.73.65-.38.88-.92.92-2.64.17-8.13-4.52-10.41-5.71-1.03-.54-1.83-1.66-3.08-1.01-.42.22-.81.52-1.26.65-.48.14-.99.08-1.48.09-.74.02-1.51.22-2.07.7-.57.49-.88,1.3-.63,1.99.19.54.7.95.8,1.52.05.27,0,.54,0,.81.02,1.21,1.08,2.09,1.82,3.04.64.83.92,1.82,1.51,2.66.63.91,1.21,1.79,1.99,2.58,1.53,1.58,4.05,3.65,5.9,4.84,2.7,1.74,6.47,2.83,9.69,3.32,1.87.29,3.82.23,8.06,2.73,4.23,2.51,20.14,11.97,27.08,15.05,8.42,3.73,10.86,4.96,19.27-.93,5.57-3.91,24.54-21.92,24.54-21.92l2.83-25.28s-9.58-1.5-20.69,10.58c-7.96,8.65-17.35,18.81-17.35,18.81,0,0-22.21-6.49-25.6-7.87Z"/>
          </g>
          <path class="cls-5" d="m241.08,68.81c-6.25,1.53-9.63,3.45-13.1,7.18-4.41,4.73-15.64,18.04-15.64,18.04,0,0,.05,5.06,4.25,10.52,4.2,5.45,10.2,6.02,10.2,6.02l16.98-15.45-2.69-26.32Z"/>
          <path class="cls-13" d="m163.72,86.21c-.06,4.17,4.14,7.73,6.5,8.77,0,0-3.96-.76-5.6-3.07-1.79-2.53-1.56-4.1-.9-5.69Z"/>
        </g>
        <g id="Chest">
          <path class="cls-5" d="m286.74,69.03c4.11,1.88,10.81,3.67,15.45,5.94,0,0,3.62,11.61,2.51,22.09-.89,8.43-2.14,16.27-3.37,29.35-1.17,12.47-.88,17.73,1.13,31.88,0,0-10.32,11.23-39.43,9.84-26.27-1.26-32.58-10.3-32.58-10.3.49-13.28-1.13-32.42.06-51.99.8-13.11,4.21-31.87,11.92-36.15,5.91-.74,21.31-4.42,21.31-4.42l22.99,3.75Z"/>
          <path class="cls-11" d="m283.88,67.55c1.27-.27,18.6,7.42,18.6,7.42,3.04,3.89,3.69,12.54,2.05,23.64-1.47,9.94-2.72,30.69-2.93,34.47-.21,3.78-.52,9.3.11,13.45.63,4.16.8,5.46-1.08,7.54-1.88,2.08-16.58,10.95-39.87,9.18-18.71-1.42-28.06-8.16-29.63-10.13-1.2-1.5-1.94-3.11-1.51-9.12.42-6,.08-26.99.64-37.76.56-10.76,2.2-28.24,10.82-37.44l14.74-2.29c-5.19,6.84-4.38,16.35-1.8,26.64,11.44-8.5,21.36-17.1,25.96-26.06l3.9.44Z"/>
        </g>
        <g id="Head">
          <g>
            <path class="cls-5" d="m290.63,39.37c1.15-4.81,4.11-14.44,3.25-18.06s-16.13-17.91-27.52-18.12c-7.42-.14-14.7,13.73-14.7,13.73,0,0,8.23-1.86,20.16,4.89,11.93,6.75,18.81,17.57,18.81,17.57Z"/>
            <path class="cls-11" d="m251.66,16.91s1.52-2.89,3.87-6.02c6.93-.47,15.59,2.02,23.63,7.38,5.87,3.91,10.46,8.72,13.39,13.59-.69,2.82-1.45,5.56-1.92,7.51,0,0-6.88-10.82-18.81-17.57-11.93-6.75-20.16-4.89-20.16-4.89Z"/>
            <path class="cls-4" d="m242.11,18.1c-5.51,8.28,1.24,22.46,15.08,31.67,13.84,9.21,29.52,9.97,35.04,1.69,5.51-8.28-1.24-22.46-15.08-31.67-13.84-9.21-29.52-9.97-35.04-1.69Z"/>
          </g>
          <g>
            <path class="cls-8" d="m246.16,33.07l27.49-1.53c-.26,1.24-.4,2.76-.24,4.56.36,4.09,4.9,8.31,4.9,8.31l-.35,5.69-.3,8.18s2.06-.52,3.08-2.41c1.02-1.89,3.29-4.86,5.23-11.69.45-1.59.87-3.18,1.22-4.8.05-.24.12-.5.19-.76-.01.02-.02.04-.04.06-2.56-11.39-32.53-23.72-39.8-18.07-.05.05-.08.11-.13.16-.24.34-.46.7-.65,1.11-1.55,3.35-1.64,7.64-.61,11.18Z"/>
            <path class="cls-1" d="m285.41,52.59c-4.26,2.02-6.16-1.35-6.16-1.35l-.8,16.86c-3.39,4.19-7.09,6.43-13.86,9.03-1.79.69-5.93,4.78-7.53,5.31-2.72-4.58-2.97-12.66.47-15.75l.05-3.85s-1.42-.01-3.67-.39c-3.74-.63-6.07-3.63-7.15-7.71-1.59-6.03-2.15-15.65.22-25.86.46-1.97,1.33-4.12,3.15-5,4.52-2.18,8.66,1.07,14.91,3.58,2.59,1.04,8.88,1.55,10.55.78-2.21,2.39-2.27,10.03.93,13.16.55,1.08,1.14,1.71,1.59,2.12,1.36,1.21,2.51-1.86,3.68-3.06,1.18-1.19,5.51-2.22,7.33,1.76,1.84,4.06.23,8.5-3.72,10.37Z"/>
            <path class="cls-8" d="m276.65,40.42c-.87,7.98-3.81,8.27-6.62,7.79-3.77-.65-5.08-2.74-11.82-3.15-4.09-.25-5.49.39-7.88,1.2-1.76.6-3.6-.34-4.16-1.92-.64-1.81-.86-2.97-.64-5.76-.52,2.54-.8,9.36-.48,13.14.33,3.8,1.5,7.1,3.47,8.99,2.73,2.62,8.69,3.98,16.32,2.78,7.53-1.18,10.67-4.15,11.75-6.75,3.47-8.45,2.57-12.61,3.66-14.18,1.09-1.57-3.61-2.15-3.61-2.15Z"/>
            <path class="cls-1" d="m265.05,51.42c-.06-.43-.14-.85-.26-1.25-.18-.6-.54-1.11-1.07-1.45-1.29-.83-3.09-.86-4.56-.93-4.94-.23-6.05,1.02-6.21,3.2-.13,1.78-.49,4.22,1.25,4.9.85.34,1.74.63,2.65.61.5-.01,1.12-.25,1.03-.86-.05-.37-.58-.71-.39-1.11.22-.44.98-.46,1.39-.45.32,0,.65.01.97.02.36,0,.96-.04,1.21.27.26.32,0,.69-.22.95-.44.53.25,1,.72,1.08.77.13,1.57.07,2.31-.16.19-.06.38-.13.55-.25.36-.24.58-.64.68-1.05.11-.41.11-.85.09-1.28-.02-.73-.05-1.5-.15-2.24Z"/>
          </g>
          <g>
            <g>
              <path class="cls-4" d="m264.84,33.13l4.12,1.84c.49-1.18-.04-2.55-1.18-3.06-1.14-.51-2.45.04-2.94,1.22Z"/>
              <path class="cls-4" d="m248.8,32.52l4.38-1.22c-.29-1.23-1.51-1.96-2.72-1.62-1.21.34-1.95,1.61-1.66,2.84Z"/>
              <path class="cls-15" d="m267.16,38.07c-.05,1.01-.91,1.8-1.92,1.75-1.01-.05-1.8-.91-1.75-1.92.05-1.01.91-1.8,1.92-1.75,1.01.05,1.8.91,1.75,1.92Z"/>
              <path class="cls-15" d="m253.18,36.7c-.05,1.01-.91,1.8-1.92,1.75-1.01-.05-1.8-.91-1.75-1.92.05-1.01.91-1.8,1.92-1.75,1.17.05,1.81.75,1.75,1.92Z"/>
            </g>
            <g>
              <path class="cls-13" d="m262.27,49.15l-6.53,1.52c.38,1.87,2.16,3.04,3.96,2.62,1.8-.42,2.96-2.28,2.57-4.14Z"/>
              <path class="cls-7" d="m261.5,50.24c.28-.04.55-.03.81,0-.15,1.45-1.16,2.72-2.61,3.06-.36.08-.72.09-1.07.05-.13-1.51,1.13-2.89,2.87-3.11Z"/>
            </g>
            <path class="cls-13" d="m258.36,44.05l-6.09-2.51c.46-1.11,2.35-3.9,3.23-4.96,2.29-2.8,4.36-4.05,4.36-4.05l-1.5,11.52Z"/>
          </g>
          <g>
            <path class="cls-4" d="m257.06,82.43c3.82-3.88,3.35-5.44,7.23-7.83,1.98-1.22,5.11-2.28,9.13-5.81,4.02-3.53,5.33-7.04,5.33-7.04l.05-1.68c1.53.12,2.26,1.56,3.84,3.28,1.58,1.72,4.54,5.87,4.54,5.87,0,0-2.6,5.21-9,10.63-6.4,5.42-10.37,7.25-10.37,7.25,0,0-.12-4.88-2.68-7.12-2.31-2.02-5.72,2.59-8.08,2.45Z"/>
            <path class="cls-4" d="m257.06,82.43c-.77-2.52-3.16-8.93.47-15.75l.04-2.8s-1.19-.15-2.44-.29c-.85.95-3.84,5.49-5.98,10.62-2.14,5.13-1.98,8.73-1.98,8.73,0,0,3.49-4.59,4.52-5.35,1.03-.76,3.33,3.6,5.37,4.83Z"/>
          </g>
        </g>
        <g id="Arm-3" data-name="Arm">
          <g id="Arm-4" data-name="Arm">
            <g>
              <g>
                <path class="cls-1" d="m297.13,182.94c-.3.31-.62.6-.8.98-.18.38-.19.89.12,1.19.14.14.34.21.53.27,1.26.36,2.64,0,3.74-.72,1.1-.71,1.95-1.74,2.72-2.81.29-.41,1.02-1.38,1.22-.33.14.76-.16,1.65-.34,2.38-.15.66-.33,1.31-.54,1.95-.26.8-.61,1.56-.86,2.36-.45,1.44-3.06,5.53-3.9,6.86-.83,1.33-.8,2.89-.15,3.5.66.61,2.16-.35,3.63-2.27.97-1.27,2.12-3.07,2.78-4.04.65-.97,1.34-1.94,1.34-1.94,0,0-.78,2.51-1.41,3.49-.63.97-2,3.36-2.62,4.65-.75,1.57-.33,3.36.1,3.83.43.47.98.71,2.82-1.97,1.35-1.96,2.33-3.45,2.33-3.45,0,0,1.77.57,3.34-1.06,1.56-1.63,3.56-5.14,3.56-5.14,0,0,1.92-.47,2.84-2.38.93-1.91,2.15-4.95,3.05-7.41.9-2.46.98-8.9,1.46-13.22.15-1.33,1.59-13.16,2.51-22.47,1.2-12.14,1.24-14.03.69-17.69-.79-5.23-2.04-10.19-4.65-19.19-2.73-9.39-3.09-12.09-4.4-15.74-2.03-5.61-4.77-15-12.97-16.67-3.26,4.81-8.85,19.43-6.13,30.98l8.98,24.9s1.46,33.26,1.43,33.9c-.06,1.41-.37,2.25-1.18,3.42-.95,1.36-1.77,2.26-2.68,3.12-2.97,2.84-3.61,7.45-6.35,10.49-.07.08-.14.15-.21.23Z"/>
                <path class="cls-13" d="m307.85,196.86c1.36-1.5,2.38-3.26,3.28-5.06.85-1.83,1.58-3.72,2.01-5.69-.74,1.87-1.48,3.72-2.37,5.51-.85,1.81-1.83,3.55-2.92,5.24Z"/>
                <path class="cls-13" d="m314.75,190.66c.67-.76,1.12-1.68,1.55-2.59.38-.93.73-1.88.9-2.88-.48.89-.85,1.81-1.27,2.72l-1.18,2.75Z"/>
              </g>
              <path class="cls-13" d="m306.63,190.33c1.2-1.55,2.51-4.57,2.51-4.57,0,0-.4,3.75-3.08,6.22l.57-1.65Z"/>
            </g>
          </g>
          <path class="cls-5" d="m300.99,121.87c7.76,1.5,16.67-1.82,21.98-7.64-1.81-6.67-4.43-15.93-5.65-20.49-1.79-6.73-4.76-11.76-7-14.45s-7.85-4.33-7.85-4.33c-5.92,6.82-7.86,26.31-6.24,31.7.67,2.23,2.82,9.08,4.75,15.2Z"/>
        </g>
      </g>
    </g>
  </g>
  <g id="Character_1" data-name="Character 1">
    <g id="Character">
      <g id="Bottom-2" data-name="Bottom">
        <g id="Bottom-3" data-name="Bottom">
          <g>
            <polygon class="cls-15" points="68.06 328.1 71.57 326.33 68.06 325.42 68.06 328.1"/>
            <path class="cls-15" d="m103.23,334.07s-42-18.09-42.48-15.29c-.11.62-.08,1.17.05,1.68-.04-.05-.08-.1-.11-.15l.85,5.19s3.02,2.48,6.54,2.61c0-.25,0-1.8,0-2.68,1.14.45,2.31,1,3.71,1.88,2.7,1.72,4.47,4.76,7.36,8.29,2.11,2.57,5.81,3.73,11.29,4.42,5.89.75,11.06-.45,12.5-2.03,1.15-1.26.53-3.55.31-3.91Z"/>
            <path class="cls-16" d="m102.06,333.12c-.41-.41-1.92-2.02-3.96-3.76-1.78-1.52-3.86-3.45-6.1-5-.89-.62-2.26-1.61-3.03-2.41-.74-.76-1.45-1.56-2.11-2.39-2.05-2.59-3.73-5.44-5.16-8.4-.68-1.4-1.15-4.39-1.23-5.95-.33-6.71.89-18.91,1.43-23.52l-22.28-.94c.63,3.14,2,15.37,2.36,18.95.54,5.44.77,8.38-.08,11.2-.5,1.65-1.24,3.67-1.3,5.38-.09,2.79,2.15,5.16,4.64,6.49,2.06,1.1,4.42,1.55,6.42,2.73,2.11,1.24,3.75,3.12,5.27,4.99,1.43,1.76,2.59,3.85,4.58,5.07,2.2,1.36,4.29,1.76,6.83,2.24,2.92.55,6.66.56,9.14.33,4.33-.4,7.53-2,4.57-5Z"/>
            <path class="cls-4" d="m99.63,330.12c-1.82-1.47-4.4-3.59-7.51-5.96-.69-.34-3.45-.95-6.47.67-6.15,3.32-7.14,7.91-7.14,7.91,0,0,1.38,3.08,5.12,4.32,7.21,3,20.01,1.84,20.09-1.43.05-2.08-1.88-3.72-4.09-5.51Zm-37.54-20.42s-.49,1.44-1.18,3.72c-.74,2.45-1.02,4.22.37,6.31,1.84,2.76,4.07,3.58,6.34,4.14,1.9-6.23-3.02-12.86-5.53-14.17Z"/>
          </g>
          <g>
            <path class="cls-15" d="m30.21,319.13c1.22,1.85-.16,8.93.22,13.95.34,4.56,1.75,12.49.42,17.02-1.57,5.38-4.53,10.43-11.85,6.96-4.52-2.14-7.77-6.55-8.45-13.1-.47-4.56,1.81-11.93,3.28-17.56,1.71-6.58,2.35-10.09,2.35-10.09l14.05,2.83Z"/>
            <path class="cls-16" d="m14.61,284.53c.77,12.46,1.64,18.92,1.86,25.73,0,3.18-.16,5.86-.79,9.22-.81,4.37-2.23,10.45-2.81,13.28-.82,3.96-1.45,6.45.02,10.84.11.34.28.67.47.99,2.01,3.6,8.32,6.64,9.88,6.17.45.71,1.58,1.12,2.78.89.17-.03.35-.08.52-.14.17-.06.35-.13.52-.22,1.03-.53,2-1.59,2.54-3.4.09-.3.17-.62.23-.97,1.02-5.51.12-9.03-.03-11.17-.18-2.47-.1-5.63.04-9.62.14-4,1.42-14.76,2.7-21.96.76-4.25,2.68-13.75,3.93-19.64H14.61Z"/>
            <path class="cls-4" d="m12.02,337.91c3.83-1.76,16.39-1.83,18.29,3.51.15,5.06.26,8.5-2.89,12.97-4.19,5.94-11.52-.15-13.76-4.05-2.24-3.9-2.1-9.69-1.63-12.43Z"/>
          </g>
          <path class="cls-5" d="m22.02,144.95c-5.26,9.76-7.65,17.44-7.21,41.98.51,28.43.11,43.1.05,46.58-.07,3.48-1.99,9.48-2.48,26.69-.37,12.85,2.34,31.44,2.34,31.44,0,0,3.41,2.76,10.06,3.26,6.13.46,11.17-1.73,11.17-1.73,0,0,5.08-27.52,7.26-37.86,2.18-10.34,8.46-44.32,8.46-44.32l5.11,24.17s-1.96,13.86.12,28.84c2.08,14.98,3.38,23.49,3.38,23.49,0,0,3.9,2.33,11.6,2.17,5.95-.13,10.26-1.38,10.26-1.38,0,0,5.86-45.51,6.35-56.89.72-16.99-3.3-60.36-4.12-85.47l-62.34-.95Z"/>
          <path class="cls-4" d="m56.68,178.19l-5.01,32.78,5.11,24.17-2.82-24.57,4.51-26.9c4.15-1.04,13.55-6.09,16.05-13.14-6.32,6.7-17.85,7.67-17.85,7.67Zm-19.72-18.86c.7-2.76,1.43-5.5,2.27-8.26-1.53,2.46-2.67,5.14-3.64,7.86-.97,2.72-1.73,5.51-2.38,8.31-.62,2.81-1.13,5.64-1.46,8.5-.34,2.85-.56,5.73-.46,8.61.66-2.81,1.27-5.59,1.87-8.38.62-2.78,1.2-5.57,1.84-8.34.61-2.78,1.28-5.54,1.96-8.3Zm-4.21-2c.92-1.69,1.84-3.39,2.68-5.17-1.46,1.34-2.73,2.84-3.89,4.42-1.17,1.57-2.2,3.24-3.14,4.96-.91,1.73-1.73,3.52-2.36,5.38-.64,1.85-1.12,3.77-1.26,5.73l2.58-5.19c.88-1.7,1.74-3.4,2.66-5.07.89-1.69,1.82-3.36,2.73-5.05Zm-1.95,109.26c-1.49,8.88-2.87,17.78-4.13,26.69,1.97-8.8,3.81-17.61,5.54-26.44,1.76-8.84,3.4-17.65,5.04-26.54,1.52-8.91,2.5-17.88,3.26-26.85.78-8.97,1.31-17.96,1.73-26.95-1.13,8.93-2.14,17.88-3.16,26.81-1.05,8.93-2.11,17.85-3.65,26.69-1.59,8.82-3.17,17.72-4.64,26.59Zm46.58-45.38c.24,3.9.53,7.82.51,11.68-.03,3.88-.21,7.8-.36,11.71l-.44,11.74c-.3,7.83-.51,15.67-.62,23.51.83-7.8,1.52-15.62,2.05-23.44.54-7.83,1.04-15.63,1.2-23.52-.14-7.93-.92-15.71-1.74-23.52-.84-7.8-1.91-15.58-3.24-23.31l1.82,23.44c.27,3.91.58,7.81.82,11.71Z"/>
        </g>
      </g>
      <g id="Top-2" data-name="Top">
        <g id="Arm-5" data-name="Arm">
          <path class="cls-16" d="m130.3,85.36c1.92-1.44,3.99-3.12,5.76-4.74,1.53-1.39,3.15-2.68,4.86-3.85,1.7-1.16,3.41-1.12,5.39-1.3,1.43-.13,2.95-.54,4.24.09.56.27,1.03.74,1.31,1.3.07.14.13.29.26.38.15.1.34.09.52.09,1.35,0,2.67.73,3.38,1.88.1.15.19.32.33.42.11.08.24.11.36.15.94.32,1.7,1.05,2.25,1.87.55.83.78,1.54,1.14,2.47-1.01-.37-1.97-.53-3-.22-.46.14-.87.4-1.27.67-.98.66-1.89,1.41-2.85,2.08-.67.47-2.19,1.73-1.82,2.73.32.86,2.89.41,3.64.43,1.26.03,2.6.26,3.52,1.11.54.5.87,1.44.34,1.95-.22.21-.54.29-.84.36-3.36.8-6.72,1.6-10.09,2.4-.81.19-1.63.39-2.46.48-2.85.33-5.86.2-8.48,1.65-2.79,1.54-8.99,9.3-11.49,12.2-7.73,8.97-13.5,13.48-16.47,15.04-4.25,2.23-6.52,1.37-21.38-5.53-15.82-7.35-18.64-10.1-18.64-10.1l-6.57-30.58c11.13.38,16.48,5.43,23.71,10.67,13.99,10.15,18.74,13.39,18.74,13.39,0,0,24.28-16.52,25.6-17.51Z"/>
        </g>
        <g id="Chest-2" data-name="Chest">
          <g id="Bikini">
            <g>
              <path class="cls-9" d="m82.49,131.29c.57-1.51.88-9.18.3-11.25,4.5-5.31,5.38-12.46,2.43-18.65-3.37-7.06-6.73-10.71-13.37-15.84-5.11-3.94-9.61-6.75-9.61-6.75,0,0-7.16-1-16.15-.27-8.99.73-17.04,2.65-17.04,2.65,0,0,1.44,7.9-.22,18.67-1.67,10.77-10.33,14-10.33,14,1.17,4.46,3.02,8.94,3.86,12.32.67,2.72,2.73,8.57,1.73,11.18-1.22,3.18-1.59,3.65-4.32,8.89-3.79,7.27-4.37,12.03-4.37,12.03,0,0,3.26.62,11.71-1.81,11.74,10.91,29.15,16.77,43.45,10.48,14.3-6.3,14.6-15.88,14.6-15.88l-2.66-19.78Z"/>
              <path class="cls-6" d="m63.99,118.69c-3.59,5.85-10.41,7.64-17.33,6.73-5.44-.71-11.13-4.11-12.93-8.39.71,4.55,3.06,9.62,12.17,11.19,10.24,1.77,16.71-4.54,18.09-9.53Z"/>
            </g>
          </g>
        </g>
        <g id="Head-2" data-name="Head">
          <path class="cls-8" d="m44.45,76.78c-1.52-.16-2.72,1.02-4.18,1.03-.86,0-1.68-.2-2.57-.12-.82.08-1.64.23-2.47.27-3.24.15-6.56-1.64-8.01-4.55.36,1.84,1.65,3.46,3.35,4.24-2.13.41-4.39.06-6.3-.97-1.9-1.03-3.43-2.74-4.25-4.75-.94-2.3-.93-4.9-.37-7.32.78-3.31,2.88-5.98,3.16-9.4.29-3.53-.48-7.05-.38-10.57.16-5.57,2.99-10.41,7.27-13.98,4.27-3.57,9.53-5.99,15.07-6.58,5.77-.61,10.96-.29,16.5,1.5,3.88,1.26,7.92,3.58,10.32,6.78,1.38,1.84,2.39,4.2,2.6,6.5.26,2.86-1.59,5.85-4.21,7.04.78,1.39.52,3.22-.5,4.44-.69.82-1.2,1.36-2.15,1.82-2.42,1.15,1.59,2.5,2.48,3.05,3.18,1.97,6.02,6.11,5.66,10-.18,2.01-1.08,3.99-2.65,5.26.1-1.53-.23-3.09-.93-4.46.23,2.9-.97,5.89-3.15,7.83-1.25,1.11-2.8,1.87-4.43,2.21-1.75.36-3.35-.24-5.04-.03-2.08.26-3.78,1.76-5.77,2.44-3.64,1.24-5.74-1.32-9.06-1.67Z"/>
          <path class="cls-12" d="m44.45,76.78c-1.52-.16-2.72,1.02-4.18,1.03-.86,0-1.68-.2-2.57-.12-.82.08-1.64.23-2.47.27-3.24.15-6.56-1.64-8.01-4.55.36,1.84,1.65,3.46,3.35,4.24-2.13.41-4.39.06-6.3-.97-1.9-1.03-3.43-2.74-4.25-4.75-.94-2.3-.93-4.9-.37-7.32.78-3.31,2.88-5.98,3.16-9.4.29-3.53-.48-7.05-.38-10.57.16-5.57,2.99-10.41,7.27-13.98,4.27-3.57,9.53-5.99,15.07-6.58,5.77-.61,10.96-.29,16.5,1.5,3.88,1.26,7.92,3.58,10.32,6.78,1.38,1.84,2.39,4.2,2.6,6.5.26,2.86-1.59,5.85-4.21,7.04.78,1.39.52,3.22-.5,4.44-.69.82-1.2,1.36-2.15,1.82-2.42,1.15,1.59,2.5,2.48,3.05,3.18,1.97,6.02,6.11,5.66,10-.18,2.01-1.08,3.99-2.65,5.26.1-1.53-.23-3.09-.93-4.46.23,2.9-.97,5.89-3.15,7.83-1.25,1.11-2.8,1.87-4.43,2.21-1.75.36-3.35-.24-5.04-.03-2.08.26-3.78,1.76-5.77,2.44-3.64,1.24-5.74-1.32-9.06-1.67Z"/>
          <path class="cls-8" d="m72.06,32.1c-2.4-3.2-6.85-5.65-10.73-6.91-5.54-1.79-10.78-2.05-16.55-1.44-5.54.58-11.02,2.94-15.29,6.52-4.27,3.57-7.22,8.87-7.38,14.44-.06,1.98.27,3.95.52,5.92.29,1.43.85,3.12.94,4.34.19,2.41-.59,3.9-.9,6.29-.32,2.39-.1,5.09,1.61,6.79-.37-1.94-.37-3.84.98-5.74-.37,1.99.68,4.03,2.19,5.36,1.52,1.33,3.45,2.09,5.36,2.75-.91-1.2-1.65-2.54-2.19-3.95,2.29,2.3,5.85,2.73,9.09,2.56,5.55-.29,11.02-1.98,15.77-4.88-.45,2.06,1.2,4.17,3.23,4.77,2.02.6,4.23,0,6.09-1,2.49-1.35,4.69-3.63,5.06-6.44.98.28,1.85.96,2.36,1.84.16-2.92-.78-5.88-2.56-8.2-1.13-.6-4.59-1.86-2.3-2.95.95-.45,1.85-1,2.53-1.82,1.02-1.22,1.42-3.06.64-4.44,2.62-1.18,4.34-4.12,4.08-6.99-.21-2.29-1.15-4.97-2.54-6.81Z"/>
          <path class="cls-16" d="m30.8,52.29c3.01-1.25,4.78.46,6.55,2.39,1.21,1.32,2.87,1.07,3.72-.51.47-.87.48-1.89.62-2.84.05-.37-.16-1.74.05-1.88.1-.07.22-.07.34-.08,2.37-.16,4.76-.57,6.89-1.62s3.99-2.81,4.77-5.05c.08.99-.03,2-.31,2.95,4.79-.59,8.99-4.47,9.95-9.2,3.17.7,5.38,7,5.37,11.51,0,2.28.24,4.43.43,6.71,1.03,12.38-2.79,16.76-4.79,18.08-2,1.32-4.56,1.86-8.73,1.88l.31,4.77s6.53,9.87,6.75,20.23c-7.33-4.28-16.88-11.41-25.57-18.94l-.09-16.15c-1.24,2.15-4.97,1.72-6.89-.66-3.05-3.75-3.82-9.75.64-11.59Z"/>
          <path class="cls-14" d="m52.81,61.64l7.09,1.54c-.36,1.99-2.43,3.26-4.66,2.68-1.94-.5-2.79-2.24-2.43-4.23Z"/>
          <path class="cls-7" d="m57.25,65.88c-.41-1.89-2.17-3.22-4.14-3-.12.01-.23.05-.35.07.15,1.41.98,2.53,2.48,2.91.7.18,1.38.16,2,.01Z"/>
          <path class="cls-7" d="m55.71,58.33c-.21.24-.34.56-.52.82-.2.29-.42.56-.66.81-.51.51-1.1.93-1.75,1.24-.73.35-1.52.55-2.32.65-.86.11-1.79.13-2.65,0-.02.03-.01.07.01.1.02.03.06.04.09.05.87.33,1.8.49,2.72.38.14-.02.27-.06.41-.08-.03.28-.03.56-.02.82.01.45.06.89.17,1.33.2.84.54,1.77,1.15,2.4.01.01.03-.02.02-.03-.37-.75-.73-1.47-.88-2.31-.07-.41-.11-.84-.11-1.26,0-.35.06-.69.1-1.03.54-.13,1.06-.29,1.55-.53.64-.32,1.23-.75,1.71-1.28.48-.54,1.01-1.28,1.04-2.03,0-.03-.03-.08-.06-.05Z"/>
          <g>
            <path class="cls-15" d="m66.69,46.39l-4.05-1.67c.42-1.15,1.67-1.7,2.79-1.24,1.12.46,1.68,1.76,1.26,2.91Z"/>
            <path class="cls-15" d="m52.04,45.32l-4.03,1.72c-.52-1.1-.04-2.38,1.07-2.86,1.11-.48,2.44.03,2.96,1.13Z"/>
            <path class="cls-15" d="m49.36,51.88c.07,1,.68-.33,1.68-.39,1-.07,2.01,1.14,1.94.14-.07-1-.94-1.76-1.94-1.69s-1.76.94-1.69,1.94Z"/>
            <path class="cls-15" d="m62.83,51.59c.18.99.64-.4,1.62-.58.99-.18,2.13.92,1.95-.06-.18-.99-1.12-1.64-2.11-1.47s-1.64,1.12-1.47,2.11Z"/>
            <path class="cls-7" d="m56.44,48.43l1.67,10.79,5.81-2.49c-2.63-4.71-5.85-8.21-7.48-8.31Z"/>
          </g>
          <path class="cls-7" d="m55.65,74.63c-4.06-.26-12.66-1.63-16.05-8.28,0,0-1.15,4.36,5.3,8.25,3.52,2.12,10.95,3.15,10.95,3.15l-.2-3.12Z"/>
          <g>
            <path class="cls-7" d="m47.8,51.11c-.19,0-.38.02-.57.05-.18.03-.36.06-.53.1-.18.04-.36.08-.53.15-.17.07-.32.15-.46.25-.11.08-.03.38.12.37.37-.03.74-.11,1.1-.19.17-.03.33-.06.5-.08.18-.02.37-.02.54-.06.31-.06.07-.59-.17-.6Z"/>
            <path class="cls-7" d="m47.94,52.29s-.1-.09-.16-.09c0,0-.01,0-.02,0,0,0,0,0-.01,0-.1,0-.17.05-.25.11-.12.09-.24.17-.36.25-.24.17-.5.31-.76.44-.16.08-.06.45.13.4.3-.09.6-.2.89-.34.14-.07.28-.14.41-.23.03-.02.07-.04.1-.06.05-.04.07-.08.09-.13.06-.12.04-.26-.05-.36Z"/>
          </g>
        </g>
        <g>
          <path class="cls-16" d="m2.6,169.81c.2,5.03-.65,9.41-.4,11.91.25,2.5.27,3.87.67,5.87.4,2,1.91,4.23,1.91,4.23,0,0,.89,3.08,1.95,4.97,1.06,1.89,3.7,4.37,3.71,4.39.87,2.42.84,2.66,1.22,3.69.12.33.26.75.55.96.25.17.64.1.9-.07.7-.47.8-1.16.88-1.5.37-1.52-.17-3.02-.5-4.55-.46-2.09-.95-4.1-1.06-6.24.02.33.29.81.41,1.1.23.56.33,1.14.55,1.72,1.02,2.71,2.04,5.42,3.06,8.13.09.25.2.52.42.67.26.18.62.16.89,0,.27-.15.47-.42.61-.7.54-1.06.41-2.32.21-3.48-.25-1.53-.59-3.04-1.01-4.53-.44-1.56-.86-3.24-1.06-4.86-.21-1.7-.41-3.13-.32-4.84.04-.68-.06-3.63,1.38-2.42.33.27.49.7.64,1.09.46,1.17,1,2.34,1.85,3.27.85.93,2.05,1.6,3.31,1.57.19,0,.39-.03.56-.12.36-.2.48-.68.4-1.08-.08-.4-.31-.75-.51-1.11-.05-.09-.1-.17-.14-.26-1.82-3.49-1.98-7.24-3.59-10.36-.5-.98-1.42-3.03-1.99-4.47-.5-1.27-1.51-2.62-1.7-5.33-.19-2.71,2.13-31.3,2.13-31.3l8.99-21.82c6.21-16.06,4.56-28.44,1.55-33.14-8.28,1.58-14.25,5.03-16.34,10.37-1.36,3.47-3.11,7.42-6.55,18.73-3.04,9.97-3.5,11.75-5.35,19.93-1.09,4.84-1.03,6.62-.13,17.5.74,8.96,1.72,17.05,1.92,22.09Z"/>
          <path class="cls-7" d="m10.44,201.18c-.9-1.72-2.16-5.54-2.56-7.43-.36-1.9-.58-3.84-.5-5.78.24,1.92.48,3.82.88,5.7.36,1.89,1.58,5.67,2.19,7.51Z"/>
          <path class="cls-7" d="m4.79,191.82c-.44-.87-.64-1.84-.82-2.78-.13-.96-.23-1.92-.15-2.9.23.95.36,1.89.53,2.84l.44,2.84Z"/>
          <path class="cls-7" d="m12.43,193.46c-.75-1.73-1.23-4.86-1.23-4.86,0,0-.53,3.58,1.37,6.53l-.13-1.67Z"/>
        </g>
      </g>
    </g>
  </g>
  <g id="Speech_Bubble" data-name="Speech Bubble">
    <g id="Speech_Bubble-2" data-name="Speech Bubble">
      <g id="Speech_Bubble-3" data-name="Speech Bubble">
        <path class="cls-2" d="m179.61,26.81c.01,6.53-2.52,12.48-6.66,16.93l-2.05,1.95c-4.31,3.68-9.9,5.93-16,5.94-13.66.03-24.79-11.05-24.82-24.71-.01-6.1,2.2-11.7,5.86-16.03l1.95-2.05c4.42-4.16,10.36-6.72,16.89-6.74,13.66-.03,24.79,11.05,24.82,24.71Z"/>
        <path class="cls-5" d="m154.78,0c-14.81.03-26.84,12.11-26.8,26.93.03,13.29,9.76,24.33,22.45,26.43l3.03,7.78c.52,1.33,2.4,1.32,2.91,0l3-7.79c12.69-2.16,22.36-13.24,22.33-26.53C181.67,11.99,169.59-.03,154.78,0Zm24.83,26.81c.01,6.53-2.52,12.48-6.66,16.93l-2.05,1.95c-4.31,3.68-9.9,5.93-16,5.94-13.66.03-24.79-11.05-24.82-24.71-.01-6.1,2.2-11.7,5.86-16.03l1.95-2.05c4.42-4.16,10.36-6.72,16.89-6.74,13.66-.03,24.79,11.05,24.82,24.71Z"/>
        <path class="cls-3" d="m179.61,26.81c.01,6.53-2.52,12.48-6.66,16.93l-2.05,1.95c-4.31,3.68-9.9,5.93-16,5.94-13.66.03-24.79-11.05-24.82-24.71-.01-6.1,2.2-11.7,5.86-16.03l1.95-2.05c4.42-4.16,10.36-6.72,16.89-6.74,13.66-.03,24.79,11.05,24.82,24.71Z"/>
      </g>
      <g id="Check">
        <path class="cls-9" d="m151.3,40.25c-1.01,0-1.98-.42-2.67-1.16l-8.29-8.85c-1.38-1.47-1.3-3.79.17-5.17,1.47-1.38,3.79-1.3,5.17.17l5.38,5.75,12.73-16.13c1.25-1.58,3.55-1.86,5.13-.6,1.58,1.25,1.86,3.55.6,5.13l-15.36,19.46c-.66.84-1.65,1.34-2.71,1.39-.05,0-.1,0-.15,0Z"/>
      </g>
    </g>
  </g>
</svg>