<?xml version="1.0" encoding="UTF-8"?>
<svg id="Capa_2" data-name="Capa 2" xmlns="http://www.w3.org/2000/svg" viewBox="0 0 31.79 31.79">
  <defs>
    <style>
      .cls-1 {
        fill: #6a6b6f;
      }
    </style>
  </defs>
  <g id="Capa_1-2" data-name="Capa 1">
    <path class="cls-1" d="m11.06,4.23L14.86.43c.57-.57,1.49-.57,2.06,0l3.8,3.8h5.38c.81,0,1.46.65,1.46,1.46v5.38l3.8,3.8c.57.57.57,1.49,0,2.06l-3.8,3.8v5.38c0,.81-.65,1.46-1.46,1.46h-5.38l-3.8,3.8c-.57.57-1.49.57-2.06,0l-3.8-3.8h-5.38c-.81,0-1.46-.65-1.46-1.46v-5.38l-3.8-3.8c-.57-.57-.57-1.49,0-2.06l3.8-3.8v-5.38c0-.81.65-1.46,1.46-1.46h5.38Zm-3.92,2.92v5.13l-3.62,3.62,3.62,3.62v5.13h5.13l3.62,3.62,3.62-3.62h5.13v-5.13l3.62-3.62-3.62-3.62v-5.13h-5.13l-3.62-3.62-3.62,3.62h-5.13Zm8.75,14.58c-3.22,0-5.83-2.61-5.83-5.83s2.61-5.83,5.83-5.83,5.83,2.61,5.83,5.83-2.61,5.83-5.83,5.83Zm0-2.92c1.61,0,2.92-1.31,2.92-2.92s-1.31-2.92-2.92-2.92-2.92,1.31-2.92,2.92,1.31,2.92,2.92,2.92Z"/>
  </g>
</svg>