<?xml version="1.0" encoding="UTF-8"?>
<svg id="Capa_2" data-name="Capa 2" xmlns="http://www.w3.org/2000/svg" viewBox="0 0 32.08 30.63">
  <defs>
    <style>
      .cls-1 {
        fill: #6a6b6f;
        fill-rule: evenodd;
      }
    </style>
  </defs>
  <g id="Capa_1-2" data-name="Capa 1">
    <path class="cls-1" d="m15.38,4.48c-2.13.66-4.36,1.35-6.63,1.35-1.5,0-2.84-.16-3.97-.38-.77-.15-1.28-.25-1.65-.29-.07,0-.13-.02-.18-.02,0,.03,0,.07,0,.11-.02.31-.02.75-.02,1.44v15.67c0,.05,0,.09,0,.12,0,0,0,.01.01.02,0,0,0,.01.01.02.76.32,2.48.82,5.81.82.81,0,1.46.65,1.46,1.46s-.65,1.46-1.46,1.46c-3.71,0-5.86-.57-7.05-1.09,0,0,0,0-.01,0-.06-.03-.21-.09-.37-.2-.16-.11-.3-.23-.42-.34-.18-.18-.34-.4-.42-.52-.08-.13-.22-.36-.31-.6C0,23.02,0,22.67,0,22.39V6.64c0-.62,0-1.16.03-1.58.03-.39.09-.95.37-1.43.15-.27.36-.55.65-.79.3-.24.61-.39.9-.49.55-.19,1.16-.13,1.56-.08.46.06,1.06.18,1.77.31h.05c.97.2,2.13.33,3.42.33,1.8,0,3.63-.56,5.87-1.26.15-.05.29-.09.44-.14,2.38-.73,5.11-1.52,8.27-1.52,3.71,0,5.86.57,7.05,1.09,0,0,0,0,.01,0,.06.03.21.09.37.2.16.11.3.23.42.34.18.18.34.4.42.52.08.13.22.36.31.6.17.48.17.82.17,1.11v15.74c0,.62,0,1.16-.03,1.58-.03.39-.09.95-.37,1.43-.15.27-.36.55-.65.79-.3.24-.61.39-.9.49-.55.19-1.16.13-1.56.08-.46-.06-1.06-.18-1.77-.31h-.05c-.43-.09-.9-.16-1.39-.22-.8-.09-1.38-.81-1.29-1.61s.81-1.38,1.61-1.29c.58.06,1.12.15,1.62.25.77.15,1.28.25,1.65.29.07,0,.13.02.18.02,0-.03,0-.07,0-.11.02-.31.02-.75.02-1.44V3.88c0-.05,0-.09,0-.12,0,0,0-.01-.01-.02,0,0,0-.01-.01-.02-.76-.32-2.48-.82-5.81-.82-2.68,0-5.05.67-7.41,1.39-.18.06-.36.11-.55.17Zm13.93,16.64s0,0,0,0h0ZM2.77,5.13s0,0,0,0h0Zm22.02,2.16c.81,0,1.46.65,1.46,1.46v5.83c0,.81-.65,1.46-1.46,1.46s-1.46-.65-1.46-1.46v-5.83c0-.81.65-1.46,1.46-1.46Zm-8.75,3.65c-1.21,0-2.19.98-2.19,2.19,0,.81-.65,1.46-1.46,1.46s-1.46-.65-1.46-1.46c0-2.82,2.29-5.1,5.1-5.1s5.1,2.29,5.1,5.1c0,.81-.65,1.46-1.46,1.46s-1.46-.65-1.46-1.46c0-1.21-.98-2.19-2.19-2.19Zm-8.75-.73c.81,0,1.46.65,1.46,1.46v5.83c0,.81-.65,1.46-1.46,1.46s-1.46-.65-1.46-1.46v-5.83c0-.81.65-1.46,1.46-1.46Z"/>
    <path class="cls-1" d="m20.85,22.28c-.58.56-1.5.55-2.06-.02l-1.14-1.17v8.09c0,.81-.65,1.46-1.46,1.46s-1.46-.65-1.46-1.46v-8.09s-1.14,1.17-1.14,1.17c-.56.58-1.49.59-2.06.02-.58-.56-.59-1.49-.02-2.06l3.65-3.73c.27-.28.65-.44,1.04-.44s.77.16,1.04.44l3.65,3.73c.56.58.55,1.5-.02,2.06Z"/>
  </g>
</svg>