<?xml version="1.0" encoding="UTF-8"?>
<svg id="Capa_2" data-name="Capa 2" xmlns="http://www.w3.org/2000/svg" viewBox="0 0 32.08 30.63">
  <defs>
    <style>
      .cls-1 {
        fill: #6a6b6f;
        fill-rule: evenodd;
      }
    </style>
  </defs>
  <g id="Capa_1-2" data-name="Capa 1">
    <path class="cls-1" d="m15.38,4.48c-2.13.66-4.36,1.35-6.63,1.35-1.5,0-2.84-.16-3.97-.38-.77-.15-1.28-.25-1.65-.29-.07,0-.13-.02-.18-.02,0,.03,0,.07,0,.11-.02.31-.02.75-.02,1.44v15.67c0,.05,0,.09,0,.12,0,0,0,.01.01.02,0,0,0,.01.01.02.23.1.39.18.52.25.24.12.39.2.74.3.5.14,1.37.27,3.09.27.81,0,1.46.65,1.46,1.46s-.65,1.46-1.46,1.46c-1.85,0-3.01-.14-3.87-.38-.63-.18-1.17-.44-1.5-.61-.09-.05-.17-.08-.23-.11,0,0,0,0-.01,0-.06-.03-.21-.09-.37-.2-.16-.11-.3-.23-.42-.34-.18-.18-.34-.4-.42-.52-.08-.13-.22-.36-.31-.6C0,23.02,0,22.67,0,22.39V6.64c0-.62,0-1.16.03-1.58.03-.39.09-.95.37-1.43.15-.27.36-.55.65-.79.3-.24.61-.39.9-.49.55-.19,1.16-.13,1.56-.08.46.06,1.06.18,1.77.31h.05c.97.2,2.13.33,3.42.33,1.8,0,3.63-.56,5.87-1.26.15-.05.29-.09.44-.14,2.38-.73,5.11-1.52,8.27-1.52,3.71,0,5.86.57,7.05,1.09,0,0,0,0,.01,0,.06.03.21.09.37.2.16.11.3.23.42.34.18.18.34.4.42.52.08.13.22.36.31.6.17.48.17.82.17,1.11v15.74c0,.62,0,1.16-.03,1.58-.03.39-.09.95-.37,1.43-.15.27-.36.55-.65.79-.3.24-.61.39-.9.49-.48.17-.93.09-1.14.05-.24-.05-.5-.13-.7-.2-.02,0-.05-.02-.07-.02-.42-.14-.9-.29-1.52-.41-1.32-.25-2.28-.25-2.87-.19-.3.03-.5.07-.62.1-.06.01-.1.03-.11.03,0,0,0,0,0,0-.75.27-1.57-.1-1.86-.85-.29-.75.09-1.6.84-1.88l.52,1.36q-.52-1.36-.52-1.36h0s0,0,0,0h0s.01,0,.01,0h.03s.06-.03.1-.04c.08-.02.18-.05.3-.08.25-.06.59-.12,1.02-.17.87-.08,2.1-.08,3.7.23.8.15,1.42.36,1.85.5.01,0,.03,0,.04.01.02-.31.02-.74.02-1.41V3.88c0-.05,0-.09,0-.12,0,0,0-.01-.01-.02,0,0,0-.01-.01-.02-.76-.32-2.48-.82-5.81-.82-2.68,0-5.05.67-7.41,1.39-.18.06-.36.11-.55.17Zm14.21,16.62s.03,0,0,0c0,0,0,0,0,0ZM2.77,5.13s0,0,0,0h0Zm22.02,2.16c.81,0,1.46.65,1.46,1.46v5.83c0,.81-.65,1.46-1.46,1.46s-1.46-.65-1.46-1.46v-5.83c0-.81.65-1.46,1.46-1.46Zm-8.75,3.65c-1.21,0-2.19.98-2.19,2.19,0,.81-.65,1.46-1.46,1.46s-1.46-.65-1.46-1.46c0-2.82,2.29-5.1,5.1-5.1s5.1,2.29,5.1,5.1c0,.81-.65,1.46-1.46,1.46s-1.46-.65-1.46-1.46c0-1.21-.98-2.19-2.19-2.19Zm-8.75-.73c.81,0,1.46.65,1.46,1.46v5.83c0,.81-.65,1.46-1.46,1.46s-1.46-.65-1.46-1.46v-5.83c0-.81.65-1.46,1.46-1.46Z"/>
    <path class="cls-1" d="m11.52,24.39c.58-.56,1.5-.55,2.06.02l1.14,1.17v-8.09c0-.81.65-1.46,1.46-1.46s1.46.65,1.46,1.46v8.09s1.14-1.17,1.14-1.17c.56-.58,1.49-.59,2.06-.02.58.56.59,1.49.02,2.06l-3.65,3.73c-.27.28-.65.44-1.04.44s-.77-.16-1.04-.44l-3.65-3.73c-.56-.58-.55-1.5.02-2.06Z"/>
  </g>
</svg>