<?xml version="1.0" encoding="UTF-8"?>
<svg id="Capa_2" data-name="Capa 2" xmlns="http://www.w3.org/2000/svg" viewBox="0 0 29.29 29.29">
  <defs>
    <style>
      .cls-1 {
        fill: #6a6b6f;
      }
    </style>
  </defs>
  <g id="Capa_1-2" data-name="Capa 1">
    <path class="cls-1" d="m11.74.21c-2.04-.66-4.27.26-5.24,2.17l-1.18,2.3c-.14.27-.36.5-.64.64l-2.3,1.18C.47,7.47-.45,9.69.21,11.74l.8,2.46c.09.29.09.61,0,.9l-.8,2.46c-.66,2.04.26,4.27,2.17,5.24l2.3,1.17c.27.14.5.36.64.64l1.18,2.3c.98,1.91,3.2,2.83,5.24,2.17l2.46-.8c.29-.09.61-.09.9,0l2.46.8c2.04.66,4.27-.26,5.24-2.17l1.17-2.3c.14-.27.36-.5.64-.64l2.3-1.17c1.91-.98,2.83-3.2,2.17-5.24l-.8-2.46c-.09-.29-.09-.61,0-.9l.8-2.46c.66-2.04-.26-4.27-2.17-5.24l-2.3-1.18c-.27-.14-.5-.36-.64-.64l-1.17-2.3c-.98-1.91-3.2-2.83-5.24-2.17l-2.46.8c-.29.09-.61.09-.9,0l-2.46-.8Zm-2.65,3.5c.33-.64,1.07-.94,1.75-.72l2.46.8c.88.28,1.82.28,2.69,0l2.46-.8c.68-.22,1.42.09,1.75.72l1.18,2.3c.42.82,1.09,1.49,1.91,1.91l2.3,1.18c.64.33.94,1.07.72,1.75l-.8,2.46c-.28.88-.28,1.82,0,2.69l.8,2.46c.22.68-.09,1.42-.72,1.75l-2.3,1.18c-.82.42-1.49,1.09-1.91,1.91l-1.18,2.3c-.33.64-1.07.94-1.75.72l-2.46-.8c-.88-.28-1.82-.28-2.69,0l-2.46.8c-.68.22-1.42-.09-1.75-.72l-1.18-2.3c-.42-.82-1.09-1.49-1.91-1.91l-2.3-1.18c-.64-.33-.94-1.07-.72-1.75l.8-2.46c.28-.88.28-1.82,0-2.69l-.8-2.46c-.22-.68.09-1.42.72-1.75l2.3-1.18c.82-.42,1.49-1.09,1.91-1.91l1.18-2.3Zm-2.09,10.58l6.19,6.19,10.31-10.31-2.06-2.06-8.25,8.25-4.12-4.12-2.06,2.06Z"/>
  </g>
</svg>